<svg width="60.000000" height="60.000000" viewBox="0 0 60 60" fill="none" xmlns="http://www.w3.org/2000/svg" xmlns:xlink="http://www.w3.org/1999/xlink">
	<desc>
			Created with Pixso.
	</desc>
	<defs>
		<clipPath id="clip1_643">
			<rect id="Icon-roof" rx="0.000000" width="59.000000" height="59.000000" transform="translate(0.500000 0.500000)" fill="white" fill-opacity="0"/>
		</clipPath>
	</defs>
	<rect id="Icon-roof" rx="0.000000" width="59.000000" height="59.000000" transform="translate(0.500000 0.500000)" fill="#FFFFFF" fill-opacity="0"/>
	<g clip-path="url(#clip1_643)">
		<path id="Vector" d="M60 36.78C60 36.77 60 36.75 60 36.73C60 36.72 60 36.71 60 36.7C60 36.67 60 36.66 59.99 36.64C59.99 36.63 59.99 36.62 59.99 36.62C59.99 36.59 59.98 36.56 59.98 36.53L51.21 1.54C51.07 0.98 50.58 0.59 50 0.59L10 0.59C9.42 0.59 8.92 0.98 8.79 1.54L0.03 36.53C0.02 36.56 0.02 36.59 0.02 36.62C0.02 36.63 0.02 36.64 0.02 36.64C0.02 36.65 0.02 36.67 0.01 36.69C0.01 36.7 0.01 36.71 0.01 36.72C0.01 36.73 0.01 36.76 0.01 36.77C0.01 36.78 0.01 36.79 0.01 36.8C0.01 36.82 0.01 36.83 0.01 36.83L0.01 40.58C0.01 40.99 0.21 41.36 0.54 41.6C0.87 41.83 1.29 41.89 1.67 41.76L8.42 39.41L15.23 41.76C15.49 41.85 15.78 41.85 16.05 41.76L22.83 39.41L29.6 41.76C29.86 41.85 30.15 41.85 30.42 41.76L37.19 39.41L43.97 41.76C44.24 41.85 44.53 41.85 44.79 41.76L51.56 39.41L58.33 41.76C58.46 41.81 58.6 41.83 58.75 41.83C59 41.83 59.26 41.75 59.47 41.6C59.8 41.36 60 40.99 60 40.58L60 36.83C60 36.82 60 36.8 60 36.8C60 36.8 60 36.79 60 36.78ZM56.98 34.91L51.97 33.16C51.7 33.07 51.42 33.07 51.15 33.16L45.42 35.15L44.18 25.19L49.29 23.42L54.57 25.28L56.98 34.91ZM51.76 14.06L53.85 22.39L49.71 20.92C49.44 20.83 49.15 20.83 48.89 20.92L43.87 22.66L42.77 13.94L47.05 12.44L51.76 14.06ZM49.02 3.09L51.03 11.16L47.46 9.93C47.19 9.84 46.91 9.84 46.64 9.93L42.46 11.4L41.41 3.09L49.02 3.09ZM31.25 3.09L38.89 3.09L39.91 11.26L36.09 9.93C35.83 9.84 35.54 9.84 35.27 9.93L31.25 11.33L31.25 3.09ZM31.25 13.98L35.68 12.43L40.26 14.01L41.32 22.48L36.84 20.91C36.57 20.82 36.28 20.82 36.02 20.91L31.25 22.58L31.25 13.98ZM31.25 25.23L36.43 23.42L41.67 25.25L42.89 34.99L37.59 33.16C37.32 33.07 37.03 33.07 36.77 33.16L31.24 35.08L31.25 25.23ZM21.1 3.09L28.75 3.09L28.75 11.33L24.73 9.93C24.47 9.84 24.17 9.84 23.91 9.93L20.08 11.26L21.1 3.09ZM28.75 25.23L28.75 35.08L23.23 33.16C22.97 33.07 22.67 33.07 22.41 33.16L17.11 35L18.33 25.26L23.57 23.42L28.75 25.23ZM19.73 14.02L24.32 12.44L28.75 13.99L28.75 22.59L23.98 20.92C23.71 20.83 23.41 20.83 23.16 20.92L18.68 22.5L19.73 14.02ZM10.98 3.09L18.58 3.09L17.54 11.4L13.36 9.93C13.09 9.84 12.81 9.84 12.54 9.93L8.95 11.16L10.98 3.09ZM8.24 14.06L12.95 12.44L17.23 13.94L16.14 22.66L11.11 20.92C10.84 20.83 10.55 20.83 10.29 20.92L6.15 22.39L8.24 14.06ZM5.42 25.3L10.71 23.43L15.82 25.19L14.58 35.15L8.82 33.16C8.69 33.11 8.55 33.09 8.41 33.09C8.27 33.09 8.13 33.11 8 33.16L3.03 34.89L5.42 25.3ZM57.5 38.83L51.97 36.91C51.7 36.82 51.42 36.82 51.15 36.91L44.38 39.26L37.59 36.91C37.32 36.82 37.03 36.82 36.77 36.91L30 39.26L23.23 36.91C22.97 36.82 22.67 36.82 22.41 36.91L15.63 39.26L8.81 36.91C8.68 36.86 8.54 36.84 8.4 36.84C8.26 36.84 8.12 36.86 7.99 36.91L2.5 38.83L2.5 37.73L8.4 35.67L15.21 38.02C15.22 38.02 15.23 38.03 15.25 38.03C15.27 38.05 15.29 38.05 15.32 38.06C15.33 38.06 15.34 38.07 15.36 38.07C15.39 38.07 15.41 38.08 15.43 38.08C15.44 38.08 15.44 38.08 15.46 38.08C15.47 38.08 15.48 38.08 15.49 38.08C15.5 38.08 15.5 38.08 15.51 38.08C15.55 38.08 15.57 38.08 15.61 38.08C15.63 38.08 15.64 38.08 15.67 38.08C15.68 38.08 15.69 38.08 15.71 38.08C15.74 38.08 15.76 38.08 15.78 38.07C15.8 38.07 15.81 38.07 15.82 38.07C15.84 38.07 15.87 38.06 15.89 38.06C15.9 38.06 15.91 38.06 15.92 38.05C15.95 38.05 15.96 38.03 15.98 38.02C16 38.02 16.01 38.02 16.01 38.01L22.78 35.66L29.55 38.01L29.57 38.01C29.58 38.01 29.6 38.02 29.62 38.02C29.65 38.02 29.66 38.03 29.68 38.03C29.71 38.03 29.72 38.05 29.73 38.05C29.75 38.05 29.78 38.06 29.8 38.06C29.81 38.06 29.82 38.06 29.85 38.06C29.88 38.06 29.93 38.06 29.96 38.06C30 38.06 30.05 38.06 30.08 38.06C30.09 38.06 30.1 38.06 30.13 38.06C30.15 38.06 30.17 38.05 30.2 38.05C30.21 38.05 30.23 38.03 30.26 38.03C30.28 38.03 30.29 38.02 30.32 38.02C30.34 38.02 30.35 38.01 30.37 38.01L30.39 38.01L37.16 35.66L43.93 38.01C43.94 38.01 43.96 38.01 43.96 38.02C43.98 38.02 43.99 38.03 44.01 38.05C44.03 38.05 44.04 38.05 44.05 38.06C44.07 38.06 44.1 38.07 44.12 38.07C44.13 38.07 44.14 38.07 44.16 38.07C44.18 38.07 44.2 38.07 44.23 38.08C44.25 38.08 44.26 38.08 44.28 38.08C44.3 38.08 44.32 38.08 44.33 38.08C44.37 38.08 44.39 38.08 44.42 38.08C44.44 38.08 44.45 38.08 44.45 38.08C44.46 38.08 44.47 38.08 44.48 38.08C44.5 38.08 44.5 38.08 44.51 38.08C44.53 38.08 44.57 38.07 44.59 38.07C44.6 38.07 44.61 38.07 44.64 38.06C44.66 38.06 44.68 38.05 44.71 38.03C44.72 38.03 44.73 38.02 44.74 38.02L51.51 35.67L57.46 37.73L57.5 38.83Z" fill="#196FF1" fill-opacity="1.000000" fill-rule="nonzero"/>
		<path id="Vector" d="M32.84 47.07C31.69 45.12 30.57 43.51 30.52 43.45C30.41 43.27 30.21 43.18 30 43.18C29.78 43.18 29.58 43.28 29.47 43.45C29.42 43.52 28.3 45.12 27.15 47.07C25.54 49.8 24.77 51.7 24.77 52.88C24.77 55.76 27.11 58.12 30.01 58.12C32.9 58.12 35.25 55.78 35.25 52.88C35.22 51.69 34.45 49.79 32.84 47.07ZM30 56.82C27.82 56.82 26.05 55.05 26.05 52.87C26.05 51.18 28.54 47.1 30 44.94C31.45 47.1 33.94 51.18 33.94 52.87C33.94 55.05 32.17 56.82 30 56.82Z" fill="#196FF1" fill-opacity="1.000000" fill-rule="nonzero"/>
		<path id="Vector" d="M30.52 43.45C30.41 43.27 30.21 43.18 30 43.18C29.78 43.18 29.58 43.28 29.47 43.45C29.42 43.52 28.3 45.12 27.15 47.07C25.54 49.8 24.77 51.7 24.77 52.88C24.77 55.76 27.11 58.12 30.01 58.12C32.9 58.12 35.25 55.78 35.25 52.88C35.22 51.69 34.45 49.79 32.84 47.07C31.69 45.12 30.57 43.51 30.52 43.45ZM26.05 52.87C26.05 51.18 28.54 47.1 30 44.94C31.45 47.1 33.94 51.18 33.94 52.87C33.94 55.05 32.17 56.82 30 56.82C27.82 56.82 26.05 55.05 26.05 52.87Z" stroke="#196FF1" stroke-opacity="1.000000" stroke-width="1.000000"/>
		<path id="Vector" d="M28.59 54.03C28.24 53.64 28.05 53.14 28.05 52.61C28.05 52.58 28.1 52.13 28.62 50.96C28.78 50.63 28.62 50.26 28.31 50.11C27.98 49.95 27.6 50.11 27.45 50.42C26.83 51.78 26.76 52.4 26.76 52.6C26.76 53.43 27.07 54.24 27.62 54.87C27.75 55.02 27.92 55.1 28.1 55.1C28.25 55.1 28.4 55.04 28.52 54.93C28.79 54.7 28.82 54.29 28.59 54.03Z" fill="#196FF1" fill-opacity="1.000000" fill-rule="nonzero"/>
		<path id="Vector" d="M28.05 52.61C28.05 52.58 28.1 52.13 28.62 50.96C28.78 50.63 28.62 50.26 28.31 50.11C27.98 49.95 27.6 50.11 27.45 50.42C26.83 51.78 26.76 52.4 26.76 52.6C26.76 53.43 27.07 54.24 27.62 54.87C27.75 55.02 27.92 55.1 28.1 55.1C28.25 55.1 28.4 55.04 28.52 54.93C28.79 54.7 28.82 54.29 28.59 54.03C28.24 53.64 28.05 53.14 28.05 52.61Z" stroke="#196FF1" stroke-opacity="1.000000" stroke-width="0.750000"/>
	</g>
</svg>
