<svg width="60.000000" height="60.000000" viewBox="0 0 60 60" fill="none" xmlns="http://www.w3.org/2000/svg" xmlns:xlink="http://www.w3.org/1999/xlink">
	<desc>
			Created with Pixso.
	</desc>
	<defs>
		<clipPath id="clip1_600">
			<rect id="Icon-pump" rx="0.000000" width="59.000000" height="59.000000" transform="translate(0.500000 0.500000)" fill="white" fill-opacity="0"/>
		</clipPath>
	</defs>
	<rect id="Icon-pump" rx="0.000000" width="59.000000" height="59.000000" transform="translate(0.500000 0.500000)" fill="#FFFFFF" fill-opacity="0"/>
	<g clip-path="url(#clip1_600)">
		<path id="Vector" d="M37.49 27.11C34.84 27.11 32.68 29.27 32.68 31.92C32.68 34.57 34.84 36.73 37.49 36.73C40.14 36.73 42.3 34.57 42.3 31.92C42.3 29.27 40.14 27.11 37.49 27.11ZM37.49 34.8C35.9 34.8 34.61 33.51 34.61 31.92C34.61 30.33 35.9 29.03 37.49 29.03C39.08 29.03 40.37 30.33 40.37 31.92C40.37 33.51 39.08 34.8 37.49 34.8Z" fill="#196FF1" fill-opacity="1.000000" fill-rule="nonzero"/>
		<path id="Vector" d="M38.45 31.92C38.45 32.45 38.02 32.88 37.49 32.88C36.96 32.88 36.53 32.45 36.53 31.92C36.53 31.39 36.96 30.96 37.49 30.96C38.02 30.96 38.45 31.39 38.45 31.92Z" fill="#196FF1" fill-opacity="1.000000" fill-rule="evenodd"/>
		<path id="Vector" d="M37.49 13.65C27.41 13.65 19.22 21.85 19.22 31.92C19.22 41.99 27.41 50.18 37.49 50.18C47.56 50.18 55.75 41.99 55.75 31.92C55.75 21.85 47.56 13.65 37.49 13.65ZM37.49 48.26C28.48 48.26 21.14 40.93 21.14 31.92C21.14 22.91 28.48 15.58 37.49 15.58C46.5 15.58 53.83 22.91 53.83 31.92C53.83 40.93 46.5 48.26 37.49 48.26Z" fill="#196FF1" fill-opacity="1.000000" fill-rule="nonzero"/>
		<path id="Vector" d="M37.49 17.5C29.53 17.5 23.07 23.97 23.07 31.92C23.07 39.87 29.53 46.34 37.49 46.34C45.44 46.34 51.9 39.87 51.9 31.92C51.9 23.97 45.44 17.5 37.49 17.5ZM49.98 31.92C49.98 32.24 49.96 32.56 49.93 32.88L46.14 32.88L46.14 30.96L49.93 30.96C49.96 31.28 49.98 31.59 49.98 31.92ZM46.14 29.03C45.08 29.03 44.21 29.9 44.21 30.96L44.21 32.88C44.21 33.94 45.08 34.8 46.14 34.8L49.63 34.8C49.32 36.12 48.8 37.35 48.11 38.47L45.64 36C44.9 35.25 43.67 35.25 42.92 36L41.56 37.36C40.81 38.11 40.81 39.33 41.56 40.08L44.03 42.54C42.91 43.23 41.68 43.75 40.37 44.07L40.37 40.57C40.37 39.51 39.51 38.65 38.45 38.65L36.52 38.65C35.46 38.65 34.6 39.51 34.6 40.57L34.6 44.07C33.29 43.75 32.06 43.24 30.94 42.54L33.41 40.08C34.16 39.33 34.16 38.11 33.41 37.36L32.05 36C31.3 35.25 30.08 35.25 29.33 36L26.86 38.47C26.17 37.35 25.65 36.12 25.34 34.8L28.83 34.8C29.89 34.8 30.76 33.94 30.76 32.88L30.76 30.96C30.76 29.9 29.89 29.04 28.83 29.04L25.34 29.04C25.65 27.72 26.17 26.49 26.86 25.37L29.33 27.84C29.7 28.22 30.19 28.4 30.69 28.4C31.18 28.4 31.67 28.22 32.05 27.84L33.41 26.48C34.16 25.73 34.16 24.51 33.41 23.76L30.94 21.3C32.06 20.6 33.29 20.08 34.6 19.77L34.6 23.27C34.6 24.33 35.46 25.19 36.52 25.19L38.45 25.19C39.51 25.19 40.37 24.33 40.37 23.27L40.37 19.77C41.68 20.08 42.91 20.6 44.03 21.29L41.56 23.76C40.81 24.51 40.81 25.73 41.56 26.48L42.92 27.84C43.3 28.21 43.79 28.4 44.28 28.4C44.77 28.4 45.27 28.21 45.64 27.84L48.11 25.37C48.8 26.49 49.32 27.72 49.63 29.03L46.14 29.03L46.14 29.03ZM24.99 31.92C24.99 31.59 25.01 31.28 25.04 30.96L28.83 30.96L28.83 32.88L25.04 32.88C25.01 32.56 24.99 32.24 24.99 31.92ZM46.97 23.8L44.28 26.48L42.92 25.12L45.61 22.44C46.09 22.86 46.55 23.31 46.97 23.8ZM38.45 19.47L38.45 23.27L36.52 23.27L36.52 19.47C36.84 19.45 37.16 19.42 37.49 19.42C37.81 19.42 38.13 19.45 38.45 19.47ZM29.36 22.44L32.05 25.12L30.69 26.48L28.01 23.8C28.42 23.31 28.88 22.86 29.36 22.44ZM28.01 40.04L30.69 37.36L32.05 38.72L29.36 41.4C28.88 40.98 28.42 40.53 28.01 40.04ZM36.52 44.37L36.52 40.57L38.45 40.57L38.45 44.37C38.13 44.39 37.81 44.42 37.49 44.42C37.16 44.42 36.84 44.39 36.52 44.37ZM45.61 41.4L42.92 38.72L44.28 37.36L46.96 40.04C46.55 40.53 46.09 40.98 45.61 41.4Z" fill="#196FF1" fill-opacity="1.000000" fill-rule="nonzero"/>
		<path id="Vector" d="M47.1 53.07C47.1 54.66 48.4 55.95 49.99 55.95C51.58 55.95 52.87 54.66 52.87 53.07C52.87 51.48 51.58 50.18 49.99 50.18C48.4 50.18 47.1 51.48 47.1 53.07ZM50.95 53.07C50.95 53.6 50.52 54.03 49.99 54.03C49.46 54.03 49.03 53.6 49.03 53.07C49.03 52.54 49.46 52.1 49.99 52.1C50.52 52.1 50.95 52.54 50.95 53.07Z" fill="#196FF1" fill-opacity="1.000000" fill-rule="nonzero"/>
		<path id="Vector" d="M11.53 15.57L13.45 15.57L13.45 17.5L11.53 17.5L11.53 15.57Z" fill="#196FF1" fill-opacity="1.000000" fill-rule="nonzero"/>
		<path id="Vector" d="M11.53 19.42L13.45 19.42L13.45 21.34L11.53 21.34L11.53 19.42Z" fill="#196FF1" fill-opacity="1.000000" fill-rule="nonzero"/>
		<path id="Vector" d="M11.53 23.26L13.45 23.26L13.45 25.19L11.53 25.19L11.53 23.26Z" fill="#196FF1" fill-opacity="1.000000" fill-rule="nonzero"/>
		<path id="Vector" d="M5.76 27.11C5.76 27.64 5.33 28.07 4.8 28.07C4.27 28.07 3.84 27.64 3.84 27.11C3.84 26.58 4.27 26.15 4.8 26.15C5.33 26.15 5.76 26.58 5.76 27.11Z" fill="#196FF1" fill-opacity="1.000000" fill-rule="evenodd"/>
		<path id="Vector" d="M14.41 40.57C12.82 40.57 11.53 41.86 11.53 43.45C11.53 45.04 12.82 46.34 14.41 46.34C16 46.34 17.29 45.04 17.29 43.45C17.29 41.86 16 40.57 14.41 40.57ZM14.41 44.41C13.88 44.41 13.45 43.98 13.45 43.45C13.45 42.92 13.88 42.49 14.41 42.49C14.94 42.49 15.37 42.92 15.37 43.45C15.37 43.98 14.94 44.41 14.41 44.41Z" fill="#196FF1" fill-opacity="1.000000" fill-rule="nonzero"/>
		<path id="Vector" d="M21.14 20.38C21.14 20.91 20.71 21.34 20.18 21.34C19.65 21.34 19.22 20.91 19.22 20.38C19.22 19.85 19.65 19.42 20.18 19.42C20.71 19.42 21.14 19.85 21.14 20.38Z" fill="#196FF1" fill-opacity="1.000000" fill-rule="evenodd"/>
		<path id="Vector" d="M59.6 18.46C59.6 17.24 59.12 16.13 58.37 15.28L60 13.65L50.95 4.6L47.95 7.6L45.64 5.98C44.45 2.61 41.25 0.19 37.49 0.19C32.72 0.19 28.83 4.08 28.83 8.85C28.83 9.75 28.98 10.63 29.25 11.47C26.91 12.43 24.68 13.78 22.69 15.58L17.3 15.58L17.3 11.73L7.69 11.73L7.69 15.58L2.88 15.58L2.88 22.3L0 22.3L0 31.92L3.84 31.92L3.84 38.25L3.84 38.65L3.84 51.51L0 53.43L0 59.8L9.04 59.8L13.45 55.39L13.45 54.03L25.44 54.03L29.28 59.8L56.71 59.8L56.71 50.88L54.89 47.83L56.28 48.18C56.49 48.23 56.71 48.26 56.92 48.26C58.4 48.26 59.6 47.06 59.6 45.59L59.6 43.55C59.6 42.53 59.03 41.62 58.12 41.16L57.62 40.91C60.29 35.02 60.21 28.26 57.45 22.45C58.78 21.57 59.6 20.1 59.6 18.46ZM48.17 10.1L50.95 7.32L57.28 13.65L56.81 14.11C56.2 13.83 55.52 13.65 54.79 13.65C53.6 13.65 52.46 14.1 51.58 14.89C49.79 13.4 47.82 12.24 45.75 11.41C46 10.59 46.14 9.73 46.14 8.85C46.14 8.79 46.13 8.73 46.13 8.67L48.17 10.1ZM30.76 8.85C30.76 5.14 33.78 2.12 37.49 2.12C41.2 2.12 44.22 5.14 44.22 8.85C44.22 9.51 44.12 10.15 43.93 10.77C43.32 10.58 42.7 10.42 42.07 10.29C42.22 9.82 42.29 9.34 42.29 8.85C42.29 6.2 40.14 4.04 37.49 4.04C34.84 4.04 32.68 6.2 32.68 8.85C32.68 9.36 32.76 9.86 32.92 10.34C32.29 10.47 31.67 10.64 31.06 10.83C30.86 10.19 30.76 9.53 30.76 8.85ZM34.85 10.01C34.69 9.64 34.6 9.25 34.6 8.85C34.6 7.26 35.9 5.96 37.49 5.96C39.08 5.96 40.37 7.26 40.37 8.85C40.37 9.24 40.29 9.62 40.14 9.97C38.38 9.76 36.61 9.79 34.85 10.01ZM1.92 30L1.92 24.23L4.8 24.23L4.8 17.5L7.69 17.5L7.69 34.4L5.76 36.33L5.76 30L1.92 30ZM57.26 42.88C57.51 43.01 57.67 43.26 57.67 43.55L57.67 45.59C57.67 46.06 57.19 46.42 56.74 46.32L54.6 45.78C55.41 44.77 56.14 43.72 56.75 42.62L57.26 42.88ZM52.17 45.68L51.67 46.21L54.79 51.41L54.79 57.87L30.31 57.87L26.47 52.11L13.45 52.11L13.45 50.11C13.77 50.15 14.09 50.18 14.41 50.18C18.13 50.18 21.14 47.16 21.14 43.45L19.22 43.45C19.22 46.1 17.07 48.26 14.41 48.26C11.76 48.26 9.61 46.1 9.61 43.45C9.61 40.8 11.76 38.65 14.41 38.65L14.41 36.72C10.7 36.72 7.69 39.74 7.69 43.45C7.69 46.13 9.26 48.44 11.53 49.52L11.53 54.59L8.25 57.87L1.92 57.87L1.92 54.62L5.76 52.7L5.76 39.04L9.61 35.2L9.61 13.65L15.38 13.65L15.38 26.15L17.3 26.15L17.3 17.5L23.45 17.5L23.72 17.24C31.74 9.76 44.05 9.93 51.76 17.64C59.47 25.35 59.65 37.67 52.17 45.68ZM56.55 20.74C55.62 19.16 54.49 17.65 53.12 16.28C53.09 16.25 53.06 16.23 53.02 16.2C53.53 15.81 54.14 15.58 54.79 15.58C56.38 15.58 57.67 16.87 57.67 18.46C57.67 19.38 57.25 20.21 56.55 20.74Z" fill="#196FF1" fill-opacity="1.000000" fill-rule="nonzero"/>
		<path id="Vector" d="M50.26 11.45L51.62 10.09L53.54 12.01L52.18 13.37L50.26 11.45Z" fill="#196FF1" fill-opacity="1.000000" fill-rule="nonzero"/>
	</g>
</svg>
