<svg width="60.000000" height="60.000000" viewBox="0 0 60 60" fill="none" xmlns="http://www.w3.org/2000/svg" xmlns:xlink="http://www.w3.org/1999/xlink">
	<desc>
			Created with Pixso.
	</desc>
	<defs>
		<clipPath id="clip1_664">
			<rect id="Icon-pipe" rx="0.000000" width="59.000000" height="59.000000" transform="translate(0.500000 0.500000)" fill="white" fill-opacity="0"/>
		</clipPath>
	</defs>
	<rect id="Icon-pipe" rx="0.000000" width="59.000000" height="59.000000" transform="translate(0.500000 0.500000)" fill="#FFFFFF" fill-opacity="0"/>
	<g clip-path="url(#clip1_664)">
		<path id="Vector" d="M6.9 18.83L11.46 18.82C11.85 18.82 12.18 18.5 12.18 18.1L12.17 16.48L22.75 16.45L22.76 18.07C22.76 18.45 23.09 18.77 23.49 18.77L28.05 18.76C28.45 18.76 28.78 18.44 28.78 18.04L28.76 16.42L35.39 16.4C39.56 16.39 42.96 19.68 42.98 23.76L43 30.26L41.35 30.28C40.95 30.28 40.62 30.59 40.62 30.99L40.64 35.44C40.64 35.83 40.96 36.15 41.36 36.15L43.01 36.14L43.05 46.46L41.4 46.47C41 46.47 40.67 46.79 40.67 47.19L40.68 51.64C40.68 52.03 41.01 52.34 41.41 52.34L58.61 52.28C59.01 52.28 59.34 51.97 59.34 51.57L59.33 47.12C59.33 46.73 59 46.41 58.6 46.41L56.95 46.4L56.91 36.08L58.57 36.07C58.96 36.07 59.29 35.75 59.29 35.35L59.28 30.9C59.28 30.51 58.95 30.19 58.55 30.19L56.9 30.21L56.88 23.7C56.82 12.15 47.19 2.82 35.35 2.85L28.73 2.88L28.72 1.26C28.72 0.87 28.39 0.56 27.99 0.56L23.43 0.57C23.03 0.57 22.71 0.89 22.71 1.28L22.72 2.9L12.14 2.94L12.12 1.32C12.12 0.93 11.8 0.62 11.4 0.62L6.84 0.63C6.44 0.63 6.11 0.94 6.11 1.34L6.17 18.12C6.17 18.51 6.5 18.83 6.9 18.83ZM12.17 15.07L12.16 12.44L22.74 12.41L22.75 15.03L12.17 15.07ZM35.39 14.98L28.76 15.01L28.75 12.38L35.37 12.36C41.84 12.35 47.09 17.43 47.13 23.74L47.15 30.24L44.46 30.25L44.43 23.75C44.41 18.9 40.37 14.97 35.39 14.98ZM44.48 36.12L47.17 36.11L47.21 46.44L44.51 46.45L44.48 36.12ZM57.9 50.85L42.15 50.91L42.14 47.88L57.89 47.82L57.9 50.85ZM55.51 46.41L48.66 46.44L48.63 36.11L55.47 36.09L55.51 46.41ZM57.84 34.66L42.09 34.72L42.08 31.68L57.83 31.62L57.84 34.66ZM35.35 4.26C46.39 4.23 55.37 12.93 55.42 23.7L55.45 30.21L48.6 30.23L48.58 23.73C48.55 16.64 42.64 10.92 35.37 10.93L28.75 10.95L28.73 4.27L35.35 4.26ZM24.16 1.98L27.26 1.96L27.32 17.34L24.22 17.35L24.16 1.98ZM22.72 4.31L22.74 10.99L12.16 11.02L12.14 4.34L22.72 4.31ZM7.57 2.05L10.67 2.03L10.73 17.41L7.62 17.42L7.57 2.05Z" fill="#196FF1" fill-opacity="1.000000" fill-rule="nonzero"/>
		<path id="Vector" d="M11.46 18.82C11.85 18.82 12.18 18.5 12.18 18.1L12.17 16.48L22.75 16.45L22.76 18.07C22.76 18.45 23.09 18.77 23.49 18.77L28.05 18.76C28.45 18.76 28.78 18.44 28.78 18.04L28.76 16.42L35.39 16.4C39.56 16.39 42.96 19.68 42.98 23.76L43 30.26L41.35 30.28C40.95 30.28 40.62 30.59 40.62 30.99L40.64 35.44C40.64 35.83 40.96 36.15 41.36 36.15L43.01 36.14L43.05 46.46L41.4 46.47C41 46.47 40.67 46.79 40.67 47.19L40.68 51.64C40.68 52.03 41.01 52.34 41.41 52.34L58.61 52.28C59.01 52.28 59.34 51.97 59.34 51.57L59.33 47.12C59.33 46.73 59 46.41 58.6 46.41L56.95 46.4L56.91 36.08L58.57 36.07C58.96 36.07 59.29 35.75 59.29 35.35L59.28 30.9C59.28 30.51 58.95 30.19 58.55 30.19L56.9 30.21L56.88 23.7C56.82 12.15 47.19 2.82 35.35 2.85L28.73 2.88L28.72 1.26C28.72 0.87 28.39 0.56 27.99 0.56L23.43 0.57C23.03 0.57 22.71 0.89 22.71 1.28L22.72 2.9L12.14 2.94L12.12 1.32C12.12 0.93 11.8 0.62 11.4 0.62L6.84 0.63C6.44 0.63 6.11 0.94 6.11 1.34L6.17 18.12C6.17 18.51 6.5 18.83 6.9 18.83L11.46 18.82ZM12.16 12.44L22.74 12.41L22.75 15.03L12.17 15.07L12.16 12.44ZM28.76 15.01L28.75 12.38L35.37 12.36C41.84 12.35 47.09 17.43 47.13 23.74L47.15 30.24L44.46 30.25L44.43 23.75C44.41 18.9 40.37 14.97 35.39 14.98L28.76 15.01ZM47.17 36.11L47.21 46.44L44.51 46.45L44.48 36.12L47.17 36.11ZM42.15 50.91L42.14 47.88L57.89 47.82L57.9 50.85L42.15 50.91ZM48.66 46.44L48.63 36.11L55.47 36.09L55.51 46.41L48.66 46.44ZM42.09 34.72L42.08 31.68L57.83 31.62L57.84 34.66L42.09 34.72ZM55.42 23.7L55.45 30.21L48.6 30.23L48.58 23.73C48.55 16.64 42.64 10.92 35.37 10.93L28.75 10.95L28.73 4.27L35.35 4.26C46.39 4.23 55.37 12.93 55.42 23.7ZM27.26 1.96L27.32 17.34L24.22 17.35L24.16 1.98L27.26 1.96ZM22.74 10.99L12.16 11.02L12.14 4.34L22.72 4.31L22.74 10.99ZM10.67 2.03L10.73 17.41L7.62 17.42L7.57 2.05L10.67 2.03Z" stroke="#196FF1" stroke-opacity="1.000000" stroke-width="1.000000"/>
		<path id="Vector" d="M36.85 23.84C34.86 21.6 31.43 21.39 29.19 23.39L25.87 26.33L25.7 26.13C24.56 24.85 22.62 24.73 21.34 25.87C20.06 27.01 19.94 28.95 21.08 30.23L21.26 30.43L20.8 30.84L20.27 30.24C20.1 30.04 19.8 30.03 19.6 30.21L17.74 31.87C17.54 32.05 17.53 32.34 17.71 32.54L18.23 33.14L8.39 41.88C8.19 42.05 8.18 42.35 8.35 42.55L9.71 44.08C9.89 44.28 10.18 44.29 10.38 44.12L17.89 37.44L18.26 39.53L1.63 54.3C0.46 55.37 0.39 57.18 1.45 58.35C2.5 59.49 4.26 59.6 5.44 58.59L31.43 35.49C31.6 35.6 31.83 35.59 31.99 35.44L34.49 33.22C34.69 33.04 34.7 32.75 34.52 32.55L31.22 28.84C31.04 28.64 30.75 28.62 30.55 28.8L29.16 30.03L29 29.87L31.15 27.96L31.28 27.84C31.5 27.64 31.84 27.66 32.04 27.89L35.44 31.72C35.61 31.92 35.91 31.93 36.1 31.75L36.39 31.51C38.65 29.53 38.85 26.09 36.85 23.84ZM19.89 31.23L22.3 33.94L21.14 34.98L18.73 32.26L19.89 31.23ZM23.32 33.68L22.79 33.08L23.25 32.67L24.46 34.02L21.43 36.7L20.82 36.02C21 36.15 21.25 36.14 21.42 36L23.28 34.34C23.47 34.17 23.5 33.87 23.32 33.68ZM21.43 31.55L21.89 31.14L22.62 31.96L22.16 32.37L21.43 31.55ZM10.1 43.09L9.37 42.27L10.17 41.56L11.16 42.16L10.1 43.09ZM11.89 41.49L10.91 40.89L11.85 40.06L12.83 40.66L11.89 41.49ZM13.58 40L12.6 39.41L13.53 38.57L14.52 39.17L13.58 40ZM15.26 38.52L14.27 37.92L15.21 37.09L16.19 37.68L15.26 38.52ZM16.93 37.02L15.95 36.42L16.89 35.59L17.87 36.18L16.93 37.02ZM17.62 34.93L18.85 33.83L19.58 34.65L18.61 35.52L17.62 34.93ZM30.83 29.83L33.5 32.84L31.71 34.44L29.04 31.43L30.83 29.83ZM30.78 34.81L4.8 57.89C4 58.58 2.79 58.48 2.1 57.68C1.43 56.89 1.5 55.72 2.25 55.02L19.08 40.06C19.19 39.96 19.25 39.79 19.23 39.63L18.73 36.7L19.52 35.98L21.03 37.69C21.21 37.89 21.5 37.91 21.7 37.73L25.43 34.43C25.63 34.25 25.64 33.96 25.46 33.76L21.78 29.61C21 28.72 21.08 27.37 21.96 26.59C22.85 25.8 24.2 25.88 24.98 26.76L28.45 30.66L28.04 31.03C27.84 31.2 27.83 31.5 28.01 31.69L30.78 34.81ZM35.85 30.75L32.76 27.28C32.64 27.14 32.5 27.02 32.33 26.94L32.81 26.5C33.03 26.3 33.37 26.33 33.57 26.55L36.56 29.91C36.35 30.22 36.12 30.5 35.85 30.75ZM34.28 25.93C33.73 25.32 32.79 25.26 32.18 25.8L28.39 29.18L26.51 27.05L29.82 24.11C31.67 22.47 34.51 22.64 36.16 24.49C37.25 25.72 37.59 27.46 37.02 29.01L34.28 25.93Z" fill="#196FF1" fill-opacity="1.000000" fill-rule="nonzero"/>
		<path id="Vector" d="M29.19 23.39L25.87 26.33L25.7 26.13C24.56 24.85 22.62 24.73 21.34 25.87C20.06 27.01 19.94 28.95 21.08 30.23L21.26 30.43L20.8 30.84L20.27 30.24C20.1 30.04 19.8 30.03 19.6 30.21L17.74 31.87C17.54 32.05 17.53 32.34 17.71 32.54L18.23 33.14L8.39 41.88C8.19 42.05 8.18 42.35 8.35 42.55L9.71 44.08C9.89 44.28 10.18 44.29 10.38 44.12L17.89 37.44L18.26 39.53L1.63 54.3C0.46 55.37 0.39 57.18 1.45 58.35C2.5 59.49 4.26 59.6 5.44 58.59L31.43 35.49C31.6 35.6 31.83 35.59 31.99 35.44L34.49 33.22C34.69 33.04 34.7 32.75 34.52 32.55L31.22 28.84C31.04 28.64 30.75 28.62 30.55 28.8L29.16 30.03L29 29.87L31.15 27.96L31.28 27.84C31.5 27.64 31.84 27.66 32.04 27.89L35.44 31.72C35.61 31.92 35.91 31.93 36.1 31.75L36.39 31.51C38.65 29.53 38.85 26.09 36.85 23.84C34.86 21.6 31.43 21.39 29.19 23.39ZM22.3 33.94L21.14 34.98L18.73 32.26L19.89 31.23L22.3 33.94ZM22.79 33.08L23.25 32.67L24.46 34.02L21.43 36.7L20.82 36.02C21 36.15 21.25 36.14 21.42 36L23.28 34.34C23.47 34.17 23.5 33.87 23.32 33.68L22.79 33.08ZM21.89 31.14L22.62 31.96L22.16 32.37L21.43 31.55L21.89 31.14ZM9.37 42.27L10.17 41.56L11.16 42.16L10.1 43.09L9.37 42.27ZM10.91 40.89L11.85 40.06L12.83 40.66L11.89 41.49L10.91 40.89ZM12.6 39.41L13.53 38.57L14.52 39.17L13.58 40L12.6 39.41ZM14.27 37.92L15.21 37.09L16.19 37.68L15.26 38.52L14.27 37.92ZM15.95 36.42L16.89 35.59L17.87 36.18L16.93 37.02L15.95 36.42ZM18.85 33.83L19.58 34.65L18.61 35.52L17.62 34.93L18.85 33.83ZM33.5 32.84L31.71 34.44L29.04 31.43L30.83 29.83L33.5 32.84ZM4.8 57.89C4 58.58 2.79 58.48 2.1 57.68C1.43 56.89 1.5 55.72 2.25 55.02L19.08 40.06C19.19 39.96 19.25 39.79 19.23 39.63L18.73 36.7L19.52 35.98L21.03 37.69C21.21 37.89 21.5 37.91 21.7 37.73L25.43 34.43C25.63 34.25 25.64 33.96 25.46 33.76L21.78 29.61C21 28.72 21.08 27.37 21.96 26.59C22.85 25.8 24.2 25.88 24.98 26.76L28.45 30.66L28.04 31.03C27.84 31.2 27.83 31.5 28.01 31.69L30.78 34.81L4.8 57.89ZM32.76 27.28C32.64 27.14 32.5 27.02 32.33 26.94L32.81 26.5C33.03 26.3 33.37 26.33 33.57 26.55L36.56 29.91C36.35 30.22 36.12 30.5 35.85 30.75L32.76 27.28ZM32.18 25.8L28.39 29.18L26.51 27.05L29.82 24.11C31.67 22.47 34.51 22.64 36.16 24.49C37.25 25.72 37.59 27.46 37.02 29.01L34.28 25.93C33.73 25.32 32.79 25.26 32.18 25.8Z" stroke="#196FF1" stroke-opacity="1.000000" stroke-width="1.000000"/>
	</g>
</svg>
