<svg width="60.000000" height="60.000000" viewBox="0 0 60 60" fill="none" xmlns="http://www.w3.org/2000/svg" xmlns:xlink="http://www.w3.org/1999/xlink">
	<desc>
			Created with Pixso.
	</desc>
	<defs>
		<clipPath id="clip1_505">
			<rect id="Icon-house" rx="0.000000" width="59.000000" height="59.000000" transform="translate(0.500000 0.500000)" fill="white" fill-opacity="0"/>
		</clipPath>
	</defs>
	<rect id="Icon-house" rx="0.000000" width="59.000000" height="59.000000" transform="translate(0.500000 0.500000)" fill="#FFFFFF" fill-opacity="0"/>
	<g clip-path="url(#clip1_505)">
		<path id="Vector" d="M35.02 47.16C33.69 48.55 31.91 49.31 30 49.31C28.09 49.31 26.31 48.55 24.99 47.16L24.35 46.5L23.72 47.16C22.4 48.55 20.62 49.31 18.71 49.31C16.8 49.31 15.01 48.55 13.69 47.16L13.06 46.5L12.42 47.16C11.1 48.55 9.32 49.31 7.41 49.31C5.5 49.31 3.72 48.55 2.39 47.16L1.06 48.38C2.72 50.12 4.96 51.07 7.35 51.07C9.46 51.07 11.43 50.33 13.01 48.98C14.58 50.33 16.56 51.07 18.67 51.07C20.78 51.07 22.75 50.33 24.33 48.98C25.9 50.33 27.88 51.07 29.99 51.07C32.39 51.07 34.63 50.12 36.28 48.38L35.02 47.16Z" fill="#196FF1" fill-opacity="1.000000" fill-rule="nonzero"/>
		<path id="Vector" d="M30 49.31C28.09 49.31 26.31 48.55 24.99 47.16L24.35 46.5L23.72 47.16C22.4 48.55 20.62 49.31 18.71 49.31C16.8 49.31 15.01 48.55 13.69 47.16L13.06 46.5L12.42 47.16C11.1 48.55 9.32 49.31 7.41 49.31C5.5 49.31 3.72 48.55 2.39 47.16L1.06 48.38C2.72 50.12 4.96 51.07 7.35 51.07C9.46 51.07 11.43 50.33 13.01 48.98C14.58 50.33 16.56 51.07 18.67 51.07C20.78 51.07 22.75 50.33 24.33 48.98C25.9 50.33 27.88 51.07 29.99 51.07C32.39 51.07 34.63 50.12 36.28 48.38L35.02 47.16C33.69 48.55 31.91 49.31 30 49.31Z" stroke="#196FF1" stroke-opacity="1.000000" stroke-width="1.000000"/>
		<path id="Vector" d="M53.39 55.95L52.76 55.28L52.12 55.95C50.8 57.33 49.02 58.1 47.11 58.1C45.2 58.1 43.42 57.33 42.09 55.95L41.46 55.28L40.83 55.95C39.53 57.3 37.78 58.06 35.92 58.1L35.94 59.87C37.99 59.83 39.92 59.1 41.47 57.78C43.04 59.13 45.02 59.87 47.13 59.87C49.24 59.87 51.21 59.13 52.79 57.78C54.34 59.09 56.26 59.83 58.32 59.87L58.35 58.1C56.44 58.06 54.69 57.3 53.39 55.95Z" fill="#196FF1" fill-opacity="1.000000" fill-rule="nonzero"/>
		<path id="Vector" d="M52.76 55.28L52.12 55.95C50.8 57.33 49.02 58.1 47.11 58.1C45.2 58.1 43.42 57.33 42.09 55.95L41.46 55.28L40.83 55.95C39.53 57.3 37.78 58.06 35.92 58.1L35.94 59.87C37.99 59.83 39.92 59.1 41.47 57.78C43.04 59.13 45.02 59.87 47.13 59.87C49.24 59.87 51.21 59.13 52.79 57.78C54.34 59.09 56.26 59.83 58.32 59.87L58.35 58.1C56.44 58.06 54.69 57.3 53.39 55.95L52.76 55.28Z" stroke="#196FF1" stroke-opacity="1.000000" stroke-width="1.000000"/>
		<path id="Vector" d="M59.66 41.03C57.31 41.5 54.93 40.75 53.27 39.03L53.1 38.87L46.24 13.23L25.34 4.69L11.5 22.52L16.28 40.35C15.29 40.88 14.19 41.16 13.03 41.16C11.12 41.16 9.33 40.4 8.01 39.02L7.38 38.35L6.75 39.02C5.07 40.74 2.69 41.49 0.35 41.03L0 42.77C2.64 43.3 5.34 42.58 7.35 40.86C8.92 42.21 10.91 42.94 13.01 42.94C15.12 42.94 17.09 42.21 18.67 40.86C20.25 42.21 22.23 42.94 24.33 42.94C26.44 42.94 28.41 42.21 30 40.86C31.57 42.21 33.55 42.94 35.66 42.94C37.76 42.94 39.73 42.21 41.32 40.86C42.89 42.21 44.87 42.94 46.98 42.94C49.08 42.94 51.05 42.21 52.64 40.86C54.22 42.21 56.21 42.94 58.27 42.94C58.85 42.94 59.42 42.89 60 42.77L59.66 41.03ZM30 38.36L29.36 39.03C28.04 40.41 26.26 41.17 24.35 41.17C23.96 41.17 23.57 41.14 23.2 41.08L20.3 30.26C19.75 28.23 20.97 26.12 23.01 25.58C25.05 25.03 27.16 26.25 27.7 28.28L30.56 38.95L30 38.36ZM46.98 41.16C45.07 41.16 43.28 40.4 41.96 39.02L41.33 38.35L40.69 39.02C39.37 40.4 37.59 41.16 35.68 41.16C34.68 41.16 33.72 40.95 32.84 40.57L29.43 27.82C28.64 24.84 25.55 23.06 22.58 23.85C19.6 24.65 17.82 27.73 18.62 30.71L21.22 40.4C20.54 40.05 19.91 39.59 19.35 39.02L18.72 38.35L18.09 39.02C18.02 39.1 17.94 39.17 17.87 39.24L13.48 22.91L25.92 6.84L44.76 14.53L51.46 39.53C50.21 40.59 48.64 41.16 46.98 41.16Z" fill="#196FF1" fill-opacity="1.000000" fill-rule="nonzero"/>
		<path id="Vector" d="M53.27 39.03L53.1 38.87L46.24 13.23L25.34 4.69L11.5 22.52L16.28 40.35C15.29 40.88 14.19 41.16 13.03 41.16C11.12 41.16 9.33 40.4 8.01 39.02L7.38 38.35L6.75 39.02C5.07 40.74 2.69 41.49 0.35 41.03L0 42.77C2.64 43.3 5.34 42.58 7.35 40.86C8.92 42.21 10.91 42.94 13.01 42.94C15.12 42.94 17.09 42.21 18.67 40.86C20.25 42.21 22.23 42.94 24.33 42.94C26.44 42.94 28.41 42.21 30 40.86C31.57 42.21 33.55 42.94 35.66 42.94C37.76 42.94 39.73 42.21 41.32 40.86C42.89 42.21 44.87 42.94 46.98 42.94C49.08 42.94 51.05 42.21 52.64 40.86C54.22 42.21 56.21 42.94 58.27 42.94C58.85 42.94 59.42 42.89 60 42.77L59.66 41.03C57.31 41.5 54.93 40.75 53.27 39.03ZM29.36 39.03C28.04 40.41 26.26 41.17 24.35 41.17C23.96 41.17 23.57 41.14 23.2 41.08L20.3 30.26C19.75 28.23 20.97 26.12 23.01 25.58C25.05 25.03 27.16 26.25 27.7 28.28L30.56 38.95L30 38.36L29.36 39.03ZM41.96 39.02L41.33 38.35L40.69 39.02C39.37 40.4 37.59 41.16 35.68 41.16C34.68 41.16 33.72 40.95 32.84 40.57L29.43 27.82C28.64 24.84 25.55 23.06 22.58 23.85C19.6 24.65 17.82 27.73 18.62 30.71L21.22 40.4C20.54 40.05 19.91 39.59 19.35 39.02L18.72 38.35L18.09 39.02C18.02 39.1 17.94 39.17 17.87 39.24L13.48 22.91L25.92 6.84L44.76 14.53L51.46 39.53C50.21 40.59 48.64 41.16 46.98 41.16C45.07 41.16 43.28 40.4 41.96 39.02Z" stroke="#196FF1" stroke-opacity="1.000000" stroke-width="1.000000"/>
		<path id="Vector" d="M44.35 19.85L32.4 23.05L34.99 32.73L46.94 29.53L44.35 19.85ZM34.57 24.3L43.11 22.01L44.79 28.27L36.25 30.56L34.57 24.3Z" fill="#196FF1" fill-opacity="1.000000" fill-rule="nonzero"/>
		<path id="Vector" d="M32.4 23.05L34.99 32.73L46.94 29.53L44.35 19.85L32.4 23.05ZM43.11 22.01L44.79 28.27L36.25 30.56L34.57 24.3L43.11 22.01Z" stroke="#196FF1" stroke-opacity="1.000000" stroke-width="1.000000"/>
		<path id="Vector" d="M24.12 0.14L18.09 7.91L17.19 4.54L9.33 6.65L11.83 15.98L5.57 24.05L6.97 25.14L24.7 2.29L51.48 13.21L52.14 11.57L24.12 0.14ZM13.19 14.22L11.49 7.91L15.93 6.71L16.72 9.66L13.19 14.22Z" fill="#196FF1" fill-opacity="1.000000" fill-rule="nonzero"/>
		<path id="Vector" d="M18.09 7.91L17.19 4.54L9.33 6.65L11.83 15.98L5.57 24.05L6.97 25.14L24.7 2.29L51.48 13.21L52.14 11.57L24.12 0.14L18.09 7.91ZM11.49 7.91L15.93 6.71L16.72 9.66L13.19 14.22L11.49 7.91Z" stroke="#196FF1" stroke-opacity="1.000000" stroke-width="1.000000"/>
		<path id="Vector" d="M31.74 13.76C31.19 11.73 29.09 10.51 27.05 11.06C25.01 11.61 23.8 13.71 24.35 15.74C24.8 17.46 26.36 18.58 28.05 18.58C28.38 18.58 28.71 18.53 29.05 18.45C31.07 17.91 32.28 15.8 31.74 13.76ZM28.58 16.75C27.48 17.05 26.35 16.39 26.05 15.3C25.75 14.2 26.41 13.07 27.5 12.77C27.67 12.72 27.85 12.7 28.04 12.7C28.95 12.7 29.78 13.31 30.03 14.22C30.32 15.32 29.67 16.46 28.58 16.75Z" fill="#196FF1" fill-opacity="1.000000" fill-rule="nonzero"/>
		<path id="Vector" d="M27.05 11.06C25.01 11.61 23.8 13.71 24.35 15.74C24.8 17.46 26.36 18.58 28.05 18.58C28.38 18.58 28.71 18.53 29.05 18.45C31.07 17.91 32.28 15.8 31.74 13.76C31.19 11.73 29.09 10.51 27.05 11.06ZM26.05 15.3C25.75 14.2 26.41 13.07 27.5 12.77C27.67 12.72 27.85 12.7 28.04 12.7C28.95 12.7 29.78 13.31 30.03 14.22C30.32 15.32 29.67 16.46 28.58 16.75C27.48 17.05 26.35 16.39 26.05 15.3Z" stroke="#196FF1" stroke-opacity="1.000000" stroke-width="1.000000"/>
		<path id="Vector" d="M54.94 1.32L53.17 1.32L53.17 3.09L54.94 3.09L54.94 1.32Z" fill="#196FF1" fill-opacity="1.000000" fill-rule="nonzero"/>
		<path id="Vector" d="M54.94 1.32L54.94 3.09L53.17 3.09L53.17 1.32L54.94 1.32Z" stroke="#196FF1" stroke-opacity="1.000000" stroke-width="1.000000"/>
		<path id="Vector" d="M54.94 4.86L53.17 4.86L53.17 6.63L54.94 6.63L54.94 4.86Z" fill="#196FF1" fill-opacity="1.000000" fill-rule="nonzero"/>
		<path id="Vector" d="M54.94 4.86L54.94 6.63L53.17 6.63L53.17 4.86L54.94 4.86Z" stroke="#196FF1" stroke-opacity="1.000000" stroke-width="1.000000"/>
		<path id="Vector" d="M54.94 8.4L53.17 8.4L53.17 10.17L54.94 10.17L54.94 8.4Z" fill="#196FF1" fill-opacity="1.000000" fill-rule="nonzero"/>
		<path id="Vector" d="M54.94 8.4L54.94 10.17L53.17 10.17L53.17 8.4L54.94 8.4Z" stroke="#196FF1" stroke-opacity="1.000000" stroke-width="1.000000"/>
		<path id="Vector" d="M59.64 10.52L57.87 10.52L57.87 12.29L59.64 12.29L59.64 10.52Z" fill="#196FF1" fill-opacity="1.000000" fill-rule="nonzero"/>
		<path id="Vector" d="M59.64 10.52L59.64 12.29L57.87 12.29L57.87 10.52L59.64 10.52Z" stroke="#196FF1" stroke-opacity="1.000000" stroke-width="1.000000"/>
		<path id="Vector" d="M59.64 6.98L57.87 6.98L57.87 8.75L59.64 8.75L59.64 6.98Z" fill="#196FF1" fill-opacity="1.000000" fill-rule="nonzero"/>
		<path id="Vector" d="M59.64 6.98L59.64 8.75L57.87 8.75L57.87 6.98L59.64 6.98Z" stroke="#196FF1" stroke-opacity="1.000000" stroke-width="1.000000"/>
		<path id="Vector" d="M59.64 14.06L57.87 14.06L57.87 15.83L59.64 15.83L59.64 14.06Z" fill="#196FF1" fill-opacity="1.000000" fill-rule="nonzero"/>
		<path id="Vector" d="M59.64 14.06L59.64 15.83L57.87 15.83L57.87 14.06L59.64 14.06Z" stroke="#196FF1" stroke-opacity="1.000000" stroke-width="1.000000"/>
		<path id="Vector" d="M1.76 29.74L0 29.74L0 31.51L1.76 31.51L1.76 29.74Z" fill="#196FF1" fill-opacity="1.000000" fill-rule="nonzero"/>
		<path id="Vector" d="M1.76 29.74L1.76 31.51L0 31.51L0 29.74L1.76 29.74Z" stroke="#196FF1" stroke-opacity="1.000000" stroke-width="1.000000"/>
		<path id="Vector" d="M1.76 26.2L0 26.2L0 27.97L1.76 27.97L1.76 26.2Z" fill="#196FF1" fill-opacity="1.000000" fill-rule="nonzero"/>
		<path id="Vector" d="M1.76 26.2L1.76 27.97L0 27.97L0 26.2L1.76 26.2Z" stroke="#196FF1" stroke-opacity="1.000000" stroke-width="1.000000"/>
		<path id="Vector" d="M1.76 22.66L0 22.66L0 24.43L1.76 24.43L1.76 22.66Z" fill="#196FF1" fill-opacity="1.000000" fill-rule="nonzero"/>
		<path id="Vector" d="M1.76 22.66L1.76 24.43L0 24.43L0 22.66L1.76 22.66Z" stroke="#196FF1" stroke-opacity="1.000000" stroke-width="1.000000"/>
		<path id="Vector" d="M6.48 35.4L4.71 35.4L4.71 37.17L6.48 37.17L6.48 35.4Z" fill="#196FF1" fill-opacity="1.000000" fill-rule="nonzero"/>
		<path id="Vector" d="M6.48 35.4L6.48 37.17L4.71 37.17L4.71 35.4L6.48 35.4Z" stroke="#196FF1" stroke-opacity="1.000000" stroke-width="1.000000"/>
		<path id="Vector" d="M6.48 28.32L4.71 28.32L4.71 30.09L6.48 30.09L6.48 28.32Z" fill="#196FF1" fill-opacity="1.000000" fill-rule="nonzero"/>
		<path id="Vector" d="M6.48 28.32L6.48 30.09L4.71 30.09L4.71 28.32L6.48 28.32Z" stroke="#196FF1" stroke-opacity="1.000000" stroke-width="1.000000"/>
		<path id="Vector" d="M6.48 31.86L4.71 31.86L4.71 33.63L6.48 33.63L6.48 31.86Z" fill="#196FF1" fill-opacity="1.000000" fill-rule="nonzero"/>
		<path id="Vector" d="M6.48 31.86L6.48 33.63L4.71 33.63L4.71 31.86L6.48 31.86Z" stroke="#196FF1" stroke-opacity="1.000000" stroke-width="1.000000"/>
		<path id="Vector" d="M12.55 55.38L10.78 55.38L10.78 57.15L12.55 57.15L12.55 55.38Z" fill="#196FF1" fill-opacity="1.000000" fill-rule="nonzero"/>
		<path id="Vector" d="M12.55 55.38L12.55 57.15L10.78 57.15L10.78 55.38L12.55 55.38Z" stroke="#196FF1" stroke-opacity="1.000000" stroke-width="1.000000"/>
		<path id="Vector" d="M21.39 55.38L19.62 55.38L19.62 57.15L21.39 57.15L21.39 55.38Z" fill="#196FF1" fill-opacity="1.000000" fill-rule="nonzero"/>
		<path id="Vector" d="M21.39 55.38L21.39 57.15L19.62 57.15L19.62 55.38L21.39 55.38Z" stroke="#196FF1" stroke-opacity="1.000000" stroke-width="1.000000"/>
		<path id="Vector" d="M17.85 55.38L14.32 55.38L14.32 57.15L17.85 57.15L17.85 55.38Z" fill="#196FF1" fill-opacity="1.000000" fill-rule="nonzero"/>
		<path id="Vector" d="M17.85 55.38L17.85 57.15L14.32 57.15L14.32 55.38L17.85 55.38Z" stroke="#196FF1" stroke-opacity="1.000000" stroke-width="1.000000"/>
		<path id="Vector" d="M46.39 45.71L44.62 45.71L44.62 47.48L46.39 47.48L46.39 45.71Z" fill="#196FF1" fill-opacity="1.000000" fill-rule="nonzero"/>
		<path id="Vector" d="M46.39 45.71L46.39 47.48L44.62 47.48L44.62 45.71L46.39 45.71Z" stroke="#196FF1" stroke-opacity="1.000000" stroke-width="1.000000"/>
		<path id="Vector" d="M55.22 45.71L48.14 45.71L48.14 47.48L55.22 47.48L55.22 45.71Z" fill="#196FF1" fill-opacity="1.000000" fill-rule="nonzero"/>
		<path id="Vector" d="M55.22 45.71L55.22 47.48L48.14 47.48L48.14 45.71L55.22 45.71Z" stroke="#196FF1" stroke-opacity="1.000000" stroke-width="1.000000"/>
		<path id="Vector" d="M58.76 45.71L57 45.71L57 47.48L58.76 47.48L58.76 45.71Z" fill="#196FF1" fill-opacity="1.000000" fill-rule="nonzero"/>
		<path id="Vector" d="M58.76 45.71L58.76 47.48L57 47.48L57 45.71L58.76 45.71Z" stroke="#196FF1" stroke-opacity="1.000000" stroke-width="1.000000"/>
		<path id="Vector" d="M38.01 51.72L36.35 51.72L36.35 53.49L38.01 53.49L38.01 51.72Z" fill="#196FF1" fill-opacity="1.000000" fill-rule="nonzero"/>
		<path id="Vector" d="M38.01 51.72L38.01 53.49L36.35 53.49L36.35 51.72L38.01 51.72Z" stroke="#196FF1" stroke-opacity="1.000000" stroke-width="1.000000"/>
		<path id="Vector" d="M45.08 51.72L43.32 51.72L43.32 53.49L45.08 53.49L45.08 51.72Z" fill="#196FF1" fill-opacity="1.000000" fill-rule="nonzero"/>
		<path id="Vector" d="M45.08 51.72L45.08 53.49L43.32 53.49L43.32 51.72L45.08 51.72Z" stroke="#196FF1" stroke-opacity="1.000000" stroke-width="1.000000"/>
		<path id="Vector" d="M41.55 51.72L39.78 51.72L39.78 53.49L41.55 53.49L41.55 51.72Z" fill="#196FF1" fill-opacity="1.000000" fill-rule="nonzero"/>
		<path id="Vector" d="M41.55 51.72L41.55 53.49L39.78 53.49L39.78 51.72L41.55 51.72Z" stroke="#196FF1" stroke-opacity="1.000000" stroke-width="1.000000"/>
		<path id="Vector" d="M17.73 44.17L15.96 44.17L15.96 45.94L17.73 45.94L17.73 44.17Z" fill="#196FF1" fill-opacity="1.000000" fill-rule="nonzero"/>
		<path id="Vector" d="M17.73 44.17L17.73 45.94L15.96 45.94L15.96 44.17L17.73 44.17Z" stroke="#196FF1" stroke-opacity="1.000000" stroke-width="1.000000"/>
		<path id="Vector" d="M21.27 44.17L19.5 44.17L19.5 45.94L21.27 45.94L21.27 44.17Z" fill="#196FF1" fill-opacity="1.000000" fill-rule="nonzero"/>
		<path id="Vector" d="M21.27 44.17L21.27 45.94L19.5 45.94L19.5 44.17L21.27 44.17Z" stroke="#196FF1" stroke-opacity="1.000000" stroke-width="1.000000"/>
		<path id="Vector" d="M34.62 12.28L33.95 13.92L38.93 15.95L39.6 14.31L34.62 12.28Z" fill="#196FF1" fill-opacity="1.000000" fill-rule="nonzero"/>
		<path id="Vector" d="M34.62 12.28L39.6 14.31L38.93 15.95L33.95 13.92L34.62 12.28Z" stroke="#196FF1" stroke-opacity="1.000000" stroke-width="1.000000"/>
		<path id="Vector" d="M41.23 14.98L40.57 16.62L42.2 17.29L42.87 15.65L41.23 14.98Z" fill="#196FF1" fill-opacity="1.000000" fill-rule="nonzero"/>
		<path id="Vector" d="M41.23 14.98L42.87 15.65L42.2 17.29L40.57 16.62L41.23 14.98Z" stroke="#196FF1" stroke-opacity="1.000000" stroke-width="1.000000"/>
	</g>
</svg>
