<svg width="60.000000" height="60.000000" viewBox="0 0 60 60" fill="none" xmlns="http://www.w3.org/2000/svg" xmlns:xlink="http://www.w3.org/1999/xlink">
	<desc>
			Created with Pixso.
	</desc>
	<defs>
		<clipPath id="clip1_486">
			<rect id="Icon-document" rx="0.000000" width="59.000000" height="59.000000" transform="translate(0.500000 0.500000)" fill="white" fill-opacity="0"/>
		</clipPath>
	</defs>
	<rect id="Icon-document" rx="0.000000" width="59.000000" height="59.000000" transform="translate(0.500000 0.500000)" fill="#FFFFFF" fill-opacity="0"/>
	<g clip-path="url(#clip1_486)">
		<path id="Vector" d="M19.28 16.92C18.8 16.92 18.2 16.85 17.8 16.39C17.65 16.24 17.53 16.09 17.41 15.96C16.44 14.93 14.76 16.36 15.78 17.69L16.02 18.01C16.18 18.2 16.47 18.44 16.88 18.7C17.28 18.95 17.73 19.14 18.22 19.25L18.22 20.56C18.22 21.96 20.42 22.11 20.42 20.46C20.43 20.33 20.44 20.17 20.44 19.99L20.44 19.24C21.24 19.05 21.91 18.67 22.47 18.08C23.03 17.49 23.31 16.71 23.31 15.74C23.31 15.08 23.18 14.53 22.93 14.08C22.67 13.64 22.36 13.33 21.99 13.16C21.62 12.98 21.21 12.83 20.76 12.7C20.31 12.57 19.9 12.47 19.53 12.42C19.15 12.36 18.84 12.25 18.58 12.08C18.33 11.91 18.2 11.69 18.2 11.42C18.2 10.11 20.12 10.27 20.96 10.98C22.21 12.03 23.6 10.11 22.16 9.02L21.99 8.87C21.88 8.78 21.68 8.67 21.39 8.53C21.11 8.4 20.79 8.29 20.44 8.21L20.44 7.95L20.44 7.4L20.44 6.93C20.44 5.49 18.24 5.49 18.24 6.93L18.24 7.95L18.24 8.2C17.43 8.36 16.76 8.76 16.3 9.35C15.83 9.96 15.59 10.63 15.59 11.38C15.59 12.13 15.77 12.75 16.11 13.23C16.46 13.72 16.88 14.06 17.38 14.26C17.88 14.46 18.38 14.62 18.87 14.74C19.37 14.86 19.79 14.99 20.14 15.14C20.49 15.29 20.66 15.5 20.66 15.78C20.66 16.54 20.2 16.92 19.28 16.92Z" fill="#196FF1" fill-opacity="1.000000" fill-rule="nonzero"/>
		<path id="Vector" d="M27.82 13.39L41.27 13.39C41.93 13.39 42.45 12.86 42.45 12.21C42.45 11.56 41.93 11.03 41.27 11.03L27.82 11.03C27.16 11.03 26.64 11.56 26.64 12.21C26.64 12.86 27.16 13.39 27.82 13.39Z" fill="#196FF1" fill-opacity="1.000000" fill-rule="nonzero"/>
		<path id="Vector" d="M27.82 18.42L41.27 18.42C41.93 18.42 42.45 17.89 42.45 17.24C42.45 16.58 41.93 16.05 41.27 16.05L27.82 16.05C27.16 16.05 26.64 16.58 26.64 17.24C26.64 17.89 27.16 18.42 27.82 18.42Z" fill="#196FF1" fill-opacity="1.000000" fill-rule="nonzero"/>
		<path id="Vector" d="M58.47 34.02L51.59 25.18L51.59 8.32C51.59 8.13 51.54 7.93 51.45 7.76C51.42 7.72 51.3 7.48 51.24 7.48L44.13 0.34C43.88 0.14 43.62 0 43.29 0L9.4 0C7.59 0 6.12 1.47 6.12 3.29L6.12 9.84C6.12 10.49 6.65 11.02 7.3 11.02C7.95 11.02 8.48 10.49 8.48 9.84L8.48 3.29C8.48 2.78 8.89 2.36 9.4 2.36L42.11 2.36L42.11 6.21C42.11 8.02 43.58 9.5 45.39 9.5L49.22 9.5L49.22 22.15L48.94 21.78C48.3 20.95 47.32 20.48 46.26 20.48C45.51 20.48 44.8 20.72 44.21 21.17L37.97 25.93C37.26 26.48 36.8 27.28 36.69 28.17C36.67 28.3 36.66 28.43 36.66 28.56C34.28 28.38 31.83 28.56 29.45 30.12L29.34 30.18L23.33 29.26C23.34 29.05 23.33 28.84 23.3 28.63C23.19 27.74 22.73 26.95 22.02 26.4L15.78 21.64C15.19 21.19 14.48 20.95 13.73 20.95C12.67 20.95 11.7 21.42 11.05 22.25L8.48 25.55L8.48 19.46C8.48 18.81 7.95 18.28 7.3 18.28C6.65 18.28 6.12 18.81 6.12 19.46L6.12 28.59L1.52 34.49C0.97 35.2 0.73 36.09 0.84 36.98C0.96 37.87 1.42 38.67 2.13 39.21L6.12 42.26L6.12 50.99C6.12 52.8 7.59 54.28 9.4 54.28L18.72 54.28C19.14 55.07 19.86 55.71 20.72 55.99C21.01 56.08 21.31 56.13 21.6 56.14C21.71 56.62 21.95 57.08 22.31 57.48C22.88 58.11 23.7 58.51 24.61 58.51C25.26 58.51 25.96 58.3 26.63 57.81L27.94 59.04C28.62 59.68 29.47 60 30.32 60C31.17 59.99 32.02 59.67 32.67 59.02C33.05 58.64 33.35 58.18 33.54 57.7C33.87 57.79 34.19 57.84 34.49 57.84C35.36 57.84 36.13 57.47 36.68 56.91C37.13 56.44 37.45 55.83 37.6 55.17C37.64 55.17 37.68 55.17 37.73 55.17C37.74 55.17 37.75 55.17 37.76 55.17C38.64 55.17 39.48 54.85 40.1 54.28L48.3 54.28C50.11 54.28 51.59 52.8 51.59 50.99L51.59 43.53C51.6 43.53 51.61 43.52 51.62 43.51L57.86 38.74C58.57 38.2 59.03 37.41 59.15 36.52C59.26 35.62 59.02 34.74 58.47 34.02ZM45.39 7.14C44.88 7.14 44.47 6.72 44.47 6.21L44.47 4.04L47.56 7.14L45.39 7.14ZM37.66 31.04L45.93 41.66C45.06 43.24 44.6 43.74 42.49 45.42L35.01 38.75L32.65 36.59C32.29 36.26 31.76 36.19 31.32 36.41L27.55 38.28C26.52 38.73 25.54 38.32 25.18 37.66C24.7 36.77 25.42 35.56 27.06 34.49L30.74 32.1C32.72 30.8 34.81 30.7 37.66 31.04ZM3.56 37.33C3.36 37.17 3.22 36.94 3.19 36.68C3.15 36.41 3.22 36.15 3.39 35.94L12.91 23.7C13.11 23.45 13.41 23.31 13.73 23.31C13.89 23.31 14.12 23.35 14.34 23.52L20.58 28.28C20.79 28.44 20.93 28.67 20.96 28.94C20.99 29.16 20.94 29.39 20.83 29.58C20.82 29.59 20.81 29.6 20.8 29.62C20.79 29.63 20.78 29.65 20.76 29.67L11.23 41.91C11.04 42.16 10.74 42.31 10.42 42.31C10.26 42.31 10.02 42.27 9.8 42.1L3.56 37.33ZM14.68 46.44C14.68 46.44 14.68 46.44 14.68 46.44L18.63 42.93C18.96 42.64 19.28 42.48 19.58 42.48C20.01 42.48 20.33 42.81 20.45 43.11C20.57 43.44 20.5 43.73 20.22 43.98L19.54 44.6C19.54 44.6 19.54 44.6 19.53 44.6C19.53 44.61 19.53 44.61 19.52 44.61C19.33 44.79 19.11 44.99 18.89 45.18L15.86 47.93C15.69 48.09 15.52 48.17 15.36 48.17C15.03 48.17 14.64 47.84 14.48 47.41C14.33 47.02 14.4 46.7 14.68 46.44L14.68 46.44ZM9.4 51.92C8.89 51.92 8.48 51.5 8.48 50.99L8.48 44.06C9.05 44.46 9.71 44.67 10.42 44.67C10.84 44.67 11.24 44.59 11.62 44.45L12.42 45.55C11.98 46.35 11.91 47.32 12.27 48.25C12.77 49.58 13.96 50.48 15.25 50.53C15.29 50.72 15.34 50.91 15.42 51.09C15.54 51.39 15.7 51.67 15.88 51.92L9.4 51.92L9.4 51.92ZM19.05 50.73C18.87 50.89 18.71 50.96 18.54 50.96C18.19 50.96 17.78 50.63 17.61 50.21C17.42 49.74 17.64 49.53 17.71 49.46C17.77 49.41 17.83 49.35 17.89 49.28C18.09 49.1 19.44 47.88 20.44 46.98L21.12 46.36C21.43 46.09 21.75 45.94 22.04 45.94C22.5 45.94 22.84 46.29 22.96 46.62C23.08 46.95 23.01 47.23 22.74 47.47L22.5 47.68C22.5 47.68 22.5 47.69 22.5 47.69C22.5 47.69 22.49 47.69 22.49 47.69L19.05 50.73ZM22.53 53.26C22.52 53.28 22.5 53.29 22.48 53.31L22.21 53.56C21.97 53.77 21.73 53.83 21.46 53.74C21.11 53.63 20.8 53.29 20.73 52.94C20.66 52.63 20.78 52.35 21.09 52.08L21.48 51.74C21.5 51.73 21.51 51.71 21.52 51.7L24.08 49.44C24.94 48.68 25.48 49.09 25.67 49.31C25.73 49.37 26.21 49.94 25.62 50.47L24.05 51.89C24.04 51.9 24.02 51.92 24 51.93C24 51.94 23.99 51.94 23.99 51.95L22.55 53.25C22.54 53.25 22.54 53.26 22.53 53.26ZM26.96 54.36L25.89 55.33C25.89 55.33 25.88 55.34 25.88 55.34L25.41 55.76C24.68 56.42 24.23 56.08 24.07 55.9C23.94 55.76 23.71 55.41 24.09 55.04L25.65 53.63C25.77 53.53 25.89 53.44 26.01 53.38C26.63 53.05 26.97 53.43 27.06 53.56C27.17 53.72 27.31 54.05 26.96 54.36ZM42.58 49.71C42.5 50 42.3 50.21 42 50.29C41.51 50.41 40.9 50.13 40.33 49.55C40.29 49.5 40.24 49.46 40.2 49.41L35.79 45.04C35.32 44.58 34.57 44.58 34.11 45.05C33.66 45.51 33.66 46.26 34.12 46.72L38.53 51.09C38.54 51.09 38.54 51.1 38.55 51.1C38.72 51.29 38.82 51.53 38.82 51.79C38.83 52.07 38.72 52.32 38.53 52.51C38.34 52.7 38.05 52.81 37.75 52.81C37.48 52.81 37.24 52.72 37.07 52.57C37 52.47 36.92 52.38 36.83 52.29L33.6 49.05C33.14 48.58 32.39 48.58 31.93 49.04C31.47 49.5 31.47 50.25 31.93 50.71L34.99 53.79C35.02 53.84 35.07 53.89 35.11 53.94L35.24 54.08C35.4 54.39 35.3 54.94 34.98 55.26C34.5 55.76 33.81 55.31 33.32 54.85L31.93 53.55C31.46 53.1 30.71 53.12 30.26 53.59C29.81 54.07 29.84 54.82 30.31 55.26L31.37 56.26C31.37 56.26 31.37 56.27 31.37 56.27C31.4 56.29 31.43 56.32 31.43 56.44C31.44 56.71 31.26 57.09 31 57.35C30.61 57.73 29.98 57.72 29.56 57.32L28.41 56.24L28.54 56.12C29.7 55.08 29.88 53.47 28.99 52.2C28.7 51.79 28.35 51.48 27.95 51.26C28.52 50.13 28.35 48.76 27.43 47.73C26.91 47.15 26.18 46.76 25.37 46.67C25.35 46.37 25.28 46.08 25.17 45.79C24.77 44.73 23.89 43.96 22.86 43.68C22.9 43.22 22.83 42.73 22.65 42.26C22.16 40.98 20.92 40.12 19.58 40.12C18.7 40.12 17.82 40.48 17.06 41.16L14.08 43.81L13.44 42.93L22.33 31.5L26.37 32.12L25.77 32.51C22.46 34.66 22.23 37.16 23.11 38.79C23.81 40.08 25.21 40.82 26.69 40.82C27.3 40.82 27.93 40.7 28.53 40.43C28.54 40.43 28.56 40.42 28.58 40.41L31.65 38.88L33.42 40.5C33.42 40.5 33.43 40.5 33.43 40.5C33.43 40.51 33.43 40.51 33.43 40.51L41.66 47.85C42.36 48.48 42.71 49.17 42.58 49.71ZM49.22 50.99C49.22 51.5 48.81 51.92 48.3 51.92L43.7 52.04C44.27 51.61 44.7 50.99 44.87 50.27C45.13 49.22 44.87 48.12 44.16 47.11C45.99 45.64 46.73 44.91 47.57 43.55C48.05 43.9 48.62 44.12 49.22 44.18L49.22 50.99L49.22 50.99ZM56.8 36.21C56.77 36.47 56.63 36.7 56.43 36.86L50.19 41.63C49.96 41.8 49.73 41.84 49.57 41.84C49.25 41.84 48.95 41.69 48.76 41.44L39.23 29.2C39.07 28.99 39 28.73 39.03 28.47C39.06 28.21 39.2 27.97 39.41 27.81L45.65 23.05C45.87 22.88 46.1 22.84 46.26 22.84C46.58 22.84 46.88 22.98 47.07 23.23L56.6 35.48C56.77 35.69 56.84 35.95 56.8 36.21Z" fill="#196FF1" fill-opacity="1.000000" fill-rule="nonzero"/>
		<path id="Vector" d="M7.3 15.7C7.95 15.7 8.48 15.17 8.48 14.52L8.48 14.49C8.48 13.84 7.95 13.31 7.3 13.31C6.65 13.31 6.12 13.84 6.12 14.49L6.12 14.52C6.12 15.17 6.65 15.7 7.3 15.7Z" fill="#196FF1" fill-opacity="1.000000" fill-rule="nonzero"/>
	</g>
</svg>
