<svg width="60.000000" height="60.000000" viewBox="0 0 60 60" fill="none" xmlns="http://www.w3.org/2000/svg" xmlns:xlink="http://www.w3.org/1999/xlink">
	<desc>
			Created with Pixso.
	</desc>
	<defs>
		<clipPath id="clip1_627">
			<rect id="Icon-tap" rx="0.000000" width="59.000000" height="59.000000" transform="translate(0.500000 0.500000)" fill="white" fill-opacity="0"/>
		</clipPath>
	</defs>
	<rect id="Icon-tap" rx="0.000000" width="59.000000" height="59.000000" transform="translate(0.500000 0.500000)" fill="#FFFFFF" fill-opacity="0"/>
	<g clip-path="url(#clip1_627)">
		<path id="Vector" d="M58.82 34.68L55.31 34.68L55.31 27.65L58.82 27.65C59.47 27.65 60 27.13 60 26.48C60 25.83 59.47 25.31 58.82 25.31L55.31 25.31L55.31 24.14C55.31 23.49 54.78 22.96 54.14 22.96L49.45 22.96C48.8 22.96 48.28 23.49 48.28 24.14L39.37 24.14C39.01 23.66 38.62 23.21 38.2 22.8L38.2 15.93C38.2 15.29 37.67 14.76 37.03 14.76L33.51 14.76L33.51 10.07L37.03 10.07C38.96 10.07 40.54 8.5 40.54 6.56C40.54 4.62 38.96 3.04 37.03 3.04L33.51 3.04C32.86 3.04 32.34 3.57 32.34 4.21C32.34 4.86 32.86 5.39 33.51 5.39L37.03 5.39C37.67 5.39 38.2 5.91 38.2 6.56C38.2 7.2 37.67 7.73 37.03 7.73L22.96 7.73C22.32 7.73 21.79 7.2 21.79 6.56C21.79 5.91 22.32 5.39 22.96 5.39C23.61 5.39 24.14 4.86 24.14 4.21C24.14 3.57 23.61 3.04 22.96 3.04C21.03 3.04 19.45 4.62 19.45 6.56C19.45 8.5 21.03 10.07 22.96 10.07L26.48 10.07L26.48 14.76L22.96 14.76C22.32 14.76 21.79 15.29 21.79 15.93L21.79 22.8C21.37 23.21 20.98 23.66 20.62 24.14L11.71 24.14C11.71 23.49 11.19 22.96 10.54 22.96L5.85 22.96C5.21 22.96 4.68 23.49 4.68 24.14L4.68 25.31L1.17 25.31C0.52 25.31 0 25.83 0 26.48C0 27.13 0.52 27.65 1.17 27.65L4.68 27.65L4.68 34.68L1.17 34.68C0.52 34.68 0 35.21 0 35.85C0 36.5 0.52 37.03 1.17 37.03L4.68 37.03L4.68 38.2C4.68 38.85 5.21 39.37 5.85 39.37L10.54 39.37C11.19 39.37 11.71 38.85 11.71 38.2L20.62 38.2C22.83 41.14 26.29 42.88 29.99 42.89C29.99 42.89 29.99 42.89 29.99 42.89C30 42.89 30 42.89 30 42.89C33.7 42.88 37.16 41.14 39.37 38.2L48.28 38.2C48.28 38.85 48.8 39.37 49.45 39.37L54.14 39.37C54.78 39.37 55.31 38.85 55.31 38.2L55.31 37.03L58.82 37.03C59.47 37.03 60 36.5 60 35.85C60 35.21 59.47 34.68 58.82 34.68ZM28.82 10.07L31.17 10.07L31.17 14.76L28.82 14.76L28.82 10.07ZM24.14 17.1L35.85 17.1L35.85 21.02C34.1 20 32.09 19.45 30 19.45C27.9 19.45 25.89 20 24.14 21.02L24.14 17.1ZM9.37 37.03L7.03 37.03L7.03 25.31L9.37 25.31L9.37 37.03ZM38.77 35.85C38.37 35.85 38.01 36.05 37.79 36.37C36.47 38.36 34.46 39.73 32.21 40.28L32.53 39.72C32.75 39.36 32.75 38.9 32.53 38.53L31.36 36.54L32.53 34.55C32.86 33.99 32.68 33.27 32.12 32.94C31.57 32.62 30.85 32.8 30.52 33.36L28.99 35.94C28.77 36.31 28.77 36.77 28.99 37.14L30.16 39.13L29.34 40.52C26.46 40.32 23.82 38.8 22.2 36.37C21.98 36.05 21.62 35.85 21.22 35.85L11.71 35.85L11.71 26.48L21.22 26.48C21.62 26.48 21.98 26.28 22.2 25.96C23.95 23.35 26.86 21.79 30 21.79C33.13 21.79 36.04 23.35 37.79 25.96C38.01 26.28 38.37 26.48 38.77 26.48L48.28 26.48L48.28 31.17L45.35 31.17C44.7 31.17 44.18 31.69 44.18 32.34C44.18 32.99 44.7 33.51 45.35 33.51L48.28 33.51L48.28 35.85L38.77 35.85ZM52.96 37.03L50.62 37.03L50.62 25.31L52.96 25.31L52.96 37.03Z" fill="#196FF1" fill-opacity="1.000000" fill-rule="nonzero"/>
		<path id="Vector" d="M30.86 45.61C30.64 45.37 30.32 45.23 30 45.23C29.67 45.23 29.35 45.37 29.13 45.61C29.07 45.68 29 45.75 28.93 45.83C27.68 47.19 25.34 49.73 25.34 52.29C25.34 54.86 27.43 56.95 30 56.95C32.56 56.95 34.65 54.86 34.65 52.29C34.65 49.73 32.31 47.19 31.06 45.83C30.99 45.75 30.92 45.68 30.86 45.61ZM30 54.6C28.72 54.6 27.68 53.57 27.68 52.29C27.68 50.98 29.01 49.27 30 48.15C30.98 49.27 32.31 50.98 32.31 52.29C32.31 53.57 31.27 54.6 30 54.6Z" fill="#196FF1" fill-opacity="1.000000" fill-rule="nonzero"/>
		<path id="Vector" d="M40.07 31.17L40.07 31.17C39.43 31.17 38.9 31.69 38.9 32.34C38.9 32.99 39.43 33.51 40.07 33.51C40.72 33.51 41.25 32.99 41.25 32.34C41.25 31.69 40.72 31.17 40.07 31.17Z" fill="#196FF1" fill-opacity="1.000000" fill-rule="nonzero"/>
		<path id="Vector" d="M28.24 5.39C28.88 5.39 29.41 4.86 29.41 4.21C29.41 3.57 28.88 3.04 28.24 3.04L28.24 3.04C27.59 3.04 27.07 3.57 27.07 4.21C27.07 4.86 27.59 5.39 28.24 5.39Z" fill="#196FF1" fill-opacity="1.000000" fill-rule="nonzero"/>
	</g>
</svg>
