<svg width="14.999756" height="13.307129" viewBox="0 0 14.9998 13.3071" fill="none" xmlns="http://www.w3.org/2000/svg" xmlns:xlink="http://www.w3.org/1999/xlink">
	<desc>
			Created with Pixso.
	</desc>
	<defs/>
	<path id="Vector" d="M6.44 13.14C6.56 13.25 6.72 13.31 6.88 13.3C7.04 13.3 7.2 13.23 7.31 13.11C7.42 12.99 7.49 12.83 7.48 12.67C7.48 12.51 7.42 12.35 7.3 12.24L2.09 7.27L14.37 7.27C14.54 7.27 14.69 7.21 14.81 7.09C14.93 6.97 14.99 6.81 14.99 6.65C14.99 6.48 14.93 6.32 14.81 6.21C14.69 6.09 14.54 6.02 14.37 6.02L2.09 6.02L7.3 1.06C7.42 0.95 7.48 0.79 7.48 0.63C7.49 0.46 7.42 0.31 7.31 0.19C7.2 0.07 7.04 0 6.88 0C6.72 -0.01 6.56 0.05 6.44 0.16L0.26 6.05C0.12 6.17 0.03 6.34 0.01 6.53C-0.01 6.61 -0.01 6.69 0.01 6.77C0.03 6.95 0.12 7.12 0.26 7.25L6.44 13.14Z" fill="#252F4A" fill-opacity="1.000000" fill-rule="evenodd"/>
</svg>
