<svg width="14.999756" height="13.307129" viewBox="0 0 14.9998 13.3071" fill="none" xmlns="http://www.w3.org/2000/svg" xmlns:xlink="http://www.w3.org/1999/xlink">
	<desc>
			Created with Pixso.
	</desc>
	<defs/>
	<path id="Vector" d="M8.55 13.14C8.43 13.25 8.27 13.31 8.11 13.3C7.95 13.3 7.79 13.23 7.68 13.11C7.57 12.99 7.5 12.83 7.51 12.67C7.51 12.51 7.57 12.35 7.69 12.24L12.9 7.27L0.62 7.27C0.45 7.27 0.3 7.21 0.18 7.09C0.06 6.97 0 6.81 0 6.65C0 6.48 0.06 6.32 0.18 6.21C0.3 6.09 0.45 6.02 0.62 6.02L12.9 6.02L7.69 1.06C7.57 0.95 7.51 0.79 7.51 0.63C7.5 0.46 7.57 0.31 7.68 0.19C7.79 0.07 7.95 0 8.11 0C8.27 -0.01 8.43 0.05 8.55 0.16L14.73 6.05C14.87 6.17 14.96 6.34 14.98 6.53C15 6.61 15 6.69 14.98 6.77C14.96 6.95 14.87 7.12 14.73 7.25L8.55 13.14Z" fill="#252F4A" fill-opacity="1.000000" fill-rule="evenodd"/>
</svg>
