<svg width="66.000000" height="66.000000" viewBox="0 0 66 66" fill="none" xmlns="http://www.w3.org/2000/svg" xmlns:xlink="http://www.w3.org/1999/xlink">
	<desc>
			Created with Pixso.
	</desc>
	<defs>
		<clipPath id="clip1_402">
			<rect id="Icon-user-round_sheild" rx="0.000000" width="65.000000" height="65.000000" transform="translate(0.500000 0.500000)" fill="white" fill-opacity="0"/>
		</clipPath>
	</defs>
	<rect id="Icon-user-round_sheild" rx="0.000000" width="65.000000" height="65.000000" transform="translate(0.500000 0.500000)" fill="#FFFFFF" fill-opacity="0"/>
	<g clip-path="url(#clip1_402)">
		<path id="Vector" d="M6.24 55.06C6.24 51.7 7.03 48.4 8.55 45.41C10.07 42.42 12.27 39.83 14.98 37.86C17.68 35.88 20.82 34.57 24.13 34.03C27.44 33.5 30.82 33.75 34.02 34.77" stroke="#7A6CF0" stroke-opacity="1.000000" stroke-width="3.500000" stroke-linejoin="round" stroke-linecap="square"/>
		<path id="Vector" d="M27.54 33.75C20.19 33.75 14.23 27.79 14.23 20.44C14.23 13.09 20.19 7.13 27.54 7.13C34.89 7.13 40.85 13.09 40.85 20.44C40.85 27.79 34.89 33.75 27.54 33.75Z" stroke="#7A6CF0" stroke-opacity="1.000000" stroke-width="3.500000" stroke-linejoin="round"/>
		<path id="Vector" d="M49.63 59.2C49.35 59.3 49.04 59.29 48.76 59.19C43.33 57.31 38.78 54.06 38.78 47.55L38.78 38.44C38.78 38.1 38.91 37.77 39.16 37.52C39.4 37.28 39.73 37.14 40.08 37.14C42.68 37.14 45.93 35.58 48.2 33.6C48.47 33.36 48.83 33.24 49.19 33.24C49.55 33.24 49.9 33.36 50.18 33.6C52.45 35.59 55.7 37.14 58.3 37.14C58.64 37.14 58.97 37.28 59.22 37.52C59.46 37.77 59.6 38.1 59.6 38.44L59.6 47.55C59.6 54.06 55.04 57.31 49.63 59.2Z" stroke="#7A6CF0" stroke-opacity="1.000000" stroke-width="3.000000" stroke-linejoin="round"/>
		<path id="Vector" d="M45.28 46.25L47.88 48.86L53.09 43.65" stroke="#7A6CF0" stroke-opacity="1.000000" stroke-width="3.000000" stroke-linejoin="round" stroke-linecap="round"/>
	</g>
</svg>
