<svg width="66.000000" height="66.000000" viewBox="0 0 66 66" fill="none" xmlns="http://www.w3.org/2000/svg" xmlns:xlink="http://www.w3.org/1999/xlink">
	<desc>
			Created with Pixso.
	</desc>
	<defs>
		<clipPath id="clip1_392">
			<rect id="Icon-user_manager" rx="0.000000" width="65.000000" height="65.000000" transform="translate(0.500000 0.500000)" fill="white" fill-opacity="0"/>
		</clipPath>
	</defs>
	<rect id="Icon-user_manager" rx="0.000000" width="65.000000" height="65.000000" transform="translate(0.500000 0.500000)" fill="#FFFFFF" fill-opacity="0"/>
	<g clip-path="url(#clip1_392)">
		<path id="Vector" d="M33.21 35.94C25.75 35.94 19.7 29.89 19.7 22.43C19.7 14.96 25.75 8.91 33.21 8.91C40.67 8.91 46.72 14.96 46.72 22.43C46.72 29.89 40.67 35.94 33.21 35.94Z" stroke="#7A6CF0" stroke-opacity="1.000000" stroke-width="3.500000" stroke-linejoin="round"/>
		<path id="Vector" d="M54.83 57.56C54.83 51.83 52.55 46.33 48.5 42.28C44.44 38.22 38.94 35.94 33.21 35.94C27.48 35.94 21.98 38.22 17.92 42.28C13.87 46.33 11.59 51.83 11.59 57.56" stroke="#7A6CF0" stroke-opacity="1.000000" stroke-width="3.500000" stroke-linejoin="round" stroke-linecap="square"/>
		<path id="Vector 3038" d="M29.42 58.86L36.56 58.86L34.46 44.59L31.52 44.59L29.42 58.86Z" fill="#7A6CF0" fill-opacity="1.000000" fill-rule="evenodd"/>
		<path id="Vector 3039" d="M36.72 35.87L29.71 35.87L31.77 41.13L34.66 41.13L36.72 35.87Z" fill="#7A6CF0" fill-opacity="1.000000" fill-rule="evenodd"/>
	</g>
</svg>
