<svg width="22.156189" height="24.432617" viewBox="0 0 22.1562 24.4326" fill="none" xmlns="http://www.w3.org/2000/svg" xmlns:xlink="http://www.w3.org/1999/xlink">
	<desc>
			Created with Pixso.
	</desc>
	<defs/>
	<path id="path37" d="M10.34 11.66L0.09 22.4C0.09 22.4 0.09 22.4 0.09 22.4C0.4 23.57 1.48 24.43 2.76 24.43C3.28 24.43 3.76 24.29 4.17 24.05L4.2 24.03L15.74 17.46L10.34 11.66Z" fill="#EB3131" fill-opacity="1.000000" fill-rule="nonzero"/>
	<path id="path39" d="M20.71 9.83L20.7 9.83L15.72 6.98L10.1 11.91L15.74 17.46L20.69 14.64C21.56 14.18 22.15 13.28 22.15 12.23C22.15 11.2 21.57 10.3 20.71 9.83Z" fill="#F6B60B" fill-opacity="1.000000" fill-rule="nonzero"/>
	<path id="path41" d="M0.09 2.02C0.03 2.25 0 2.48 0 2.73L0 21.69C0 21.94 0.03 22.17 0.09 22.4L10.69 11.94L0.09 2.02Z" fill="#5778C5" fill-opacity="1.000000" fill-rule="nonzero"/>
	<path id="path43" d="M10.42 12.21L15.72 6.98L4.2 0.39C3.78 0.14 3.29 0 2.77 0C1.48 0 0.4 0.85 0.09 2.02C0.09 2.02 0.09 2.02 0.09 2.02L10.42 12.21Z" fill="#3BAD49" fill-opacity="1.000000" fill-rule="nonzero"/>
</svg>
