<svg width="19.246826" height="23.420898" viewBox="0 0 19.2468 23.4209" fill="none" xmlns="http://www.w3.org/2000/svg" xmlns:xlink="http://www.w3.org/1999/xlink">
	<desc>
			Created with Pixso.
	</desc>
	<defs/>
	<path id="&lt;Path&gt;" d="M16.07 12.45C16.08 11.55 16.32 10.67 16.77 9.89C17.22 9.11 17.86 8.45 18.63 7.99C18.14 7.29 17.49 6.72 16.74 6.32C15.99 5.91 15.15 5.69 14.29 5.66C12.47 5.48 10.7 6.75 9.77 6.75C8.82 6.75 7.39 5.68 5.85 5.71C4.86 5.75 3.88 6.03 3.03 6.55C2.18 7.06 1.48 7.79 0.99 8.65C-1.11 12.25 0.46 17.54 2.47 20.45C3.48 21.88 4.66 23.47 6.2 23.41C7.7 23.35 8.26 22.46 10.08 22.46C11.89 22.46 12.41 23.41 13.98 23.38C15.6 23.35 16.62 21.95 17.59 20.51C18.32 19.49 18.87 18.37 19.24 17.18C18.3 16.79 17.5 16.13 16.94 15.29C16.37 14.45 16.07 13.46 16.07 12.45Z" fill="#F3F9FF" fill-opacity="1.000000" fill-rule="nonzero"/>
	<path id="&lt;Path&gt;" d="M13.1 3.75C13.98 2.7 14.42 1.35 14.31 0C12.96 0.13 11.72 0.77 10.83 1.78C10.39 2.27 10.05 2.84 9.84 3.46C9.63 4.08 9.54 4.74 9.58 5.4C10.26 5.4 10.92 5.26 11.53 4.97C12.14 4.69 12.68 4.27 13.1 3.75Z" fill="#F3F9FF" fill-opacity="1.000000" fill-rule="nonzero"/>
</svg>
