<svg width="127.187866" height="75.037598" viewBox="0 0 127.188 75.0376" fill="none" xmlns="http://www.w3.org/2000/svg" xmlns:xlink="http://www.w3.org/1999/xlink">
	<desc>
			Created with Pixso.
	</desc>
	<defs/>
	<path id="Ellipse 118" d="M65.28 22.92L65.72 0.01C56.46 -0.17 47.28 1.66 38.8 5.38C32.41 8.18 26.54 12 21.4 16.68C19.72 18.21 18.12 19.83 16.6 21.54C16.47 21.69 16.34 21.84 16.22 21.98C10.27 28.82 5.84 36.84 3.22 45.51C0.56 54.34 0 63.92 0 72.78L0 72.89L21.4 72.89C21.4 72.88 21.4 72.88 21.4 72.88C21.19 71.41 21.22 69.72 21.4 67.94C21.92 62.87 23.7 56.99 24.97 52.76C25.04 52.55 25.1 52.34 25.16 52.13C26.88 46.44 29.81 41.19 33.75 36.74C37.7 32.3 42.56 28.76 48 26.37C53.44 23.98 59.34 22.81 65.28 22.92Z" fill="#6A65FF" fill-opacity="1.000000" fill-rule="evenodd"/>
	<path id="Ellipse 119" d="M66.6 3.4L66.61 17.78C73.44 18.26 80.1 20.17 86.16 23.39C92.21 26.6 97.52 31.05 101.75 36.44C105.98 41.84 109.03 48.06 110.7 54.71C111 55.91 111.26 57.11 111.47 58.33C112.37 63.57 112.42 68.93 111.6 74.19C111.56 74.47 111.51 74.75 111.46 75.03L126.91 75.03C127.21 69.52 127.34 65.09 126.91 60.53C126.63 57.54 126.11 54.49 125.24 51.04C123.06 42.36 119.08 34.24 113.56 27.19C112.88 26.33 112.19 25.5 111.48 24.67C109.32 22.2 106.98 19.89 104.48 17.78C101.01 14.85 97.23 12.28 93.19 10.14C85.58 6.1 76.26 4.17 67.61 3.47C67.27 3.45 66.94 3.42 66.6 3.4Z" fill="#DAD3FF" fill-opacity="1.000000" fill-rule="evenodd"/>
</svg>
