<svg width="23.000000" height="22.000000" viewBox="0 0 23 22" fill="none" xmlns="http://www.w3.org/2000/svg" xmlns:xlink="http://www.w3.org/1999/xlink">
	<desc>
			Created with Pixso.
	</desc>
	<defs/>
	<rect id="Frame 89" rx="0.000000" width="21.000000" height="21.000000" transform="translate(0.500000 0.500000)" fill="#B98888" fill-opacity="0"/>
	<path id="Vector" d="M15.53 9.94L10.73 6.41C10.64 6.34 10.53 6.3 10.42 6.3C10.31 6.29 10.21 6.32 10.11 6.37C10.01 6.43 9.93 6.52 9.88 6.62C9.82 6.72 9.79 6.84 9.79 6.96L9.79 14.03C9.79 14.15 9.82 14.27 9.88 14.37C9.93 14.47 10.01 14.56 10.11 14.62C10.21 14.67 10.31 14.7 10.42 14.69C10.53 14.69 10.64 14.65 10.73 14.58L15.53 11.05C15.61 10.99 15.68 10.91 15.72 10.81C15.77 10.71 15.79 10.6 15.79 10.5C15.79 10.39 15.77 10.28 15.72 10.18C15.68 10.08 15.61 10 15.53 9.94ZM10.99 12.79L10.99 8.2L14.11 10.5L10.99 12.79ZM22.43 4.09C22.34 3.72 22.18 3.37 21.95 3.08C21.72 2.79 21.43 2.57 21.1 2.43C17.69 0.97 12.22 1 11.99 1C11.77 1 6.29 0.97 2.88 2.43C2.56 2.57 2.27 2.8 2.04 3.08C1.81 3.37 1.64 3.72 1.55 4.09C1.3 5.18 1 7.18 1 10.5C1 13.81 1.3 15.81 1.55 16.9C1.64 17.27 1.81 17.62 2.04 17.91C2.27 18.2 2.56 18.42 2.88 18.56C6.29 20.02 11.77 20 11.99 20L12.06 20C12.75 20 17.86 19.95 21.11 18.56C21.43 18.42 21.72 18.2 21.95 17.91C22.18 17.62 22.35 17.27 22.44 16.9C22.69 15.81 23 13.82 23 10.5C23 7.17 22.69 5.18 22.43 4.09ZM21.27 16.57C21.23 16.74 21.16 16.9 21.05 17.03C20.95 17.16 20.82 17.26 20.67 17.33C17.47 18.69 12.05 18.67 11.99 18.67C11.94 18.67 6.52 18.69 3.32 17.33C3.17 17.26 3.04 17.16 2.94 17.03C2.83 16.89 2.76 16.74 2.72 16.57C2.48 15.55 2.19 13.67 2.19 10.5C2.19 7.32 2.48 5.44 2.72 4.42C2.76 4.25 2.83 4.09 2.93 3.96C3.04 3.83 3.17 3.73 3.32 3.66C6.4 2.35 11.55 2.32 11.97 2.32L11.99 2.32C12.05 2.32 17.46 2.3 20.67 3.66C20.81 3.73 20.94 3.83 21.05 3.96C21.15 4.1 21.23 4.25 21.27 4.42C21.5 5.44 21.79 7.32 21.79 10.5C21.79 13.68 21.51 15.55 21.27 16.57Z" fill="#F6F6F6" fill-opacity="1.000000" fill-rule="nonzero"/>
</svg>
