<svg width="22.000000" height="22.000000" viewBox="0 0 22 22" fill="none" xmlns="http://www.w3.org/2000/svg" xmlns:xlink="http://www.w3.org/1999/xlink">
	<desc>
			Created with Pixso.
	</desc>
	<defs>
		<clipPath id="clip1_189">
			<rect id="iconoir:instagram" rx="0.000000" width="21.000000" height="21.000000" transform="translate(0.500000 0.500000)" fill="white" fill-opacity="0"/>
		</clipPath>
	</defs>
	<rect id="iconoir:instagram" rx="0.000000" width="21.000000" height="21.000000" transform="translate(0.500000 0.500000)" fill="#B68787" fill-opacity="0"/>
	<g clip-path="url(#clip1_189)">
		<path id="Vector" d="M13.59 13.59C14.28 12.9 14.66 11.97 14.66 10.99C14.66 10.02 14.28 9.09 13.59 8.4C12.9 7.71 11.97 7.33 11 7.33C10.03 7.33 9.09 7.71 8.4 8.4C7.72 9.09 7.33 10.02 7.33 10.99C7.33 11.97 7.72 12.9 8.4 13.59C9.09 14.27 10.03 14.66 11 14.66C11.97 14.66 12.9 14.27 13.59 13.59Z" stroke="#F6F6F6" stroke-opacity="1.000000" stroke-width="1.500000" stroke-linejoin="round"/>
		<path id="Vector" d="M2.75 7.33C2.75 6.11 3.23 4.95 4.09 4.09C4.95 3.23 6.11 2.75 7.33 2.75L14.66 2.75C15.88 2.75 17.04 3.23 17.9 4.09C18.76 4.95 19.25 6.11 19.25 7.33L19.25 14.66C19.25 15.88 18.76 17.04 17.9 17.9C17.04 18.76 15.88 19.25 14.66 19.25L7.33 19.25C6.11 19.25 4.95 18.76 4.09 17.9C3.23 17.04 2.75 15.88 2.75 14.66L2.75 7.33Z" stroke="#F6F6F6" stroke-opacity="1.000000" stroke-width="1.500000"/>
		<path id="Vector" d="M16.03 5.96L16.04 5.95" stroke="#F6F6F6" stroke-opacity="1.000000" stroke-width="1.500000" stroke-linejoin="round" stroke-linecap="round"/>
	</g>
</svg>
