<svg width="24.000000" height="24.000000" viewBox="0 0 24 24" fill="none" xmlns="http://www.w3.org/2000/svg" xmlns:xlink="http://www.w3.org/1999/xlink">
	<desc>
			Created with Pixso.
	</desc>
	<defs>
		<clipPath id="clip1_185">
			<rect id="ph:phone-light" rx="0.000000" width="23.000000" height="23.000000" transform="translate(0.500000 0.500000)" fill="white" fill-opacity="0"/>
		</clipPath>
	</defs>
	<rect id="ph:phone-light" rx="0.000000" width="23.000000" height="23.000000" transform="translate(0.500000 0.500000)" fill="#FFFFFF" fill-opacity="0"/>
	<g clip-path="url(#clip1_185)">
		<path id="Vector" d="M20.77 15.02L16.34 13.04C16.14 12.95 15.92 12.92 15.7 12.94C15.49 12.96 15.28 13.03 15.1 13.15C15.08 13.16 15.06 13.18 15.04 13.19L12.73 15.16C12.7 15.17 12.68 15.18 12.65 15.18C12.62 15.18 12.6 15.18 12.57 15.17C11.08 14.45 9.54 12.92 8.82 11.45C8.81 11.42 8.8 11.4 8.8 11.37C8.8 11.34 8.81 11.32 8.82 11.29L10.8 8.95C10.81 8.93 10.82 8.91 10.84 8.89C10.95 8.71 11.03 8.5 11.05 8.28C11.06 8.07 11.03 7.85 10.94 7.65L8.97 3.23C8.86 2.97 8.66 2.75 8.42 2.61C8.17 2.47 7.89 2.41 7.6 2.44C6.38 2.6 5.26 3.2 4.44 4.13C3.63 5.06 3.18 6.26 3.18 7.49C3.18 14.83 9.15 20.81 16.5 20.81C17.73 20.81 18.92 20.36 19.85 19.55C20.78 18.73 21.39 17.61 21.55 16.38C21.58 16.1 21.52 15.82 21.38 15.57C21.24 15.33 21.03 15.14 20.77 15.02ZM16.5 19.68C9.78 19.68 4.31 14.21 4.31 7.49C4.3 6.53 4.65 5.6 5.28 4.88C5.92 4.15 6.79 3.68 7.75 3.56L7.77 3.56C7.8 3.56 7.84 3.57 7.87 3.59C7.9 3.61 7.93 3.64 7.94 3.68L9.92 8.1C9.93 8.12 9.93 8.15 9.93 8.17C9.93 8.2 9.93 8.23 9.92 8.25L7.94 10.6C7.92 10.62 7.91 10.64 7.9 10.66C7.77 10.84 7.7 11.06 7.69 11.29C7.67 11.51 7.71 11.74 7.81 11.94C8.64 13.65 10.36 15.35 12.08 16.18C12.29 16.28 12.51 16.32 12.74 16.3C12.97 16.29 13.18 16.21 13.37 16.09C13.39 16.07 13.41 16.06 13.42 16.05L15.74 14.08C15.76 14.07 15.79 14.06 15.81 14.06C15.84 14.05 15.86 14.06 15.89 14.07L20.32 16.05C20.35 16.07 20.38 16.09 20.41 16.13C20.43 16.16 20.43 16.2 20.43 16.24C20.31 17.19 19.84 18.07 19.11 18.7C18.39 19.34 17.46 19.68 16.5 19.68Z" fill="#FFC107" fill-opacity="1.000000" fill-rule="nonzero"/>
	</g>
</svg>
