<svg width="20.000000" height="20.000000" viewBox="0 0 20 20" fill="none" xmlns="http://www.w3.org/2000/svg" xmlns:xlink="http://www.w3.org/1999/xlink">
	<desc>
			Created with Pixso.
	</desc>
	<defs>
		<clipPath id="clip28_116">
			<rect id="Icon-star_fill" rx="0.000000" width="19.000000" height="19.000000" transform="translate(0.500000 0.500000)" fill="white" fill-opacity="0"/>
		</clipPath>
	</defs>
	<rect id="Icon-star_fill" rx="0.000000" width="19.000000" height="19.000000" transform="translate(0.500000 0.500000)" fill="#FFFFFF" fill-opacity="0"/>
	<g clip-path="url(#clip28_116)">
		<path id="Vector" d="M10.79 1.41C10.73 1.24 10.63 1.09 10.48 0.99C10.34 0.88 10.17 0.83 9.99 0.83C9.81 0.83 9.64 0.88 9.5 0.99C9.35 1.09 9.25 1.24 9.2 1.41L7.38 7.18L1.66 7.17C1.48 7.17 1.31 7.23 1.16 7.33C1.02 7.44 0.91 7.59 0.86 7.76C0.81 7.93 0.81 8.11 0.87 8.28C0.93 8.45 1.04 8.59 1.19 8.69L5.77 11.83L4.05 17.28C3.99 17.45 4 17.63 4.05 17.79C4.11 17.96 4.21 18.1 4.35 18.21C4.49 18.31 4.66 18.36 4.84 18.37C5.01 18.37 5.18 18.31 5.32 18.21L9.99 14.87L14.65 18.21C14.79 18.31 14.97 18.37 15.14 18.37C15.32 18.37 15.49 18.31 15.63 18.21C15.77 18.11 15.87 17.96 15.93 17.8C15.98 17.63 15.99 17.45 15.93 17.28L14.21 11.83L18.79 8.69C18.94 8.59 19.05 8.45 19.11 8.28C19.17 8.11 19.17 7.93 19.12 7.76C19.07 7.59 18.96 7.44 18.82 7.33C18.68 7.23 18.5 7.17 18.32 7.17L12.6 7.18L10.79 1.41Z" fill="#FFC107" fill-opacity="1.000000" fill-rule="nonzero"/>
	</g>
</svg>
