<svg width="22.000000" height="22.000000" viewBox="0 0 22 22" fill="none" xmlns="http://www.w3.org/2000/svg" xmlns:xlink="http://www.w3.org/1999/xlink">
	<desc>
			Created with Pixso.
	</desc>
	<defs>
		<clipPath id="clip1_198">
			<rect id="lineicons:facebook" rx="0.000000" width="21.000000" height="21.000000" transform="translate(0.500000 0.500000)" fill="white" fill-opacity="0"/>
		</clipPath>
	</defs>
	<rect id="lineicons:facebook" rx="0.000000" width="21.000000" height="21.000000" transform="translate(0.500000 0.500000)" fill="#FFFFFF" fill-opacity="0"/>
	<g clip-path="url(#clip1_198)">
		<path id="Vector" d="M12.35 21.08L9.85 21.08C9.21 21.08 8.7 20.54 8.7 19.87L8.7 12.33L6.65 12.33C6.01 12.33 5.5 11.79 5.5 11.12L5.5 8.94C5.5 8.27 6.01 7.73 6.65 7.73L8.63 7.73L8.63 5.73C8.63 2.85 10.36 0.91 12.92 0.91L14.84 0.91C15.48 0.91 16 1.45 16 2.12L16 4.69C16 5.35 15.48 5.89 14.84 5.89L13.47 5.89L13.47 7.7L15.29 7.7C15.68 7.73 16 7.89 16.22 8.14C16.44 8.43 16.54 8.81 16.48 9.16L16.09 11.31C16.03 11.88 15.55 12.3 14.94 12.3L13.47 12.3L13.47 19.87C13.47 20.51 12.95 21.08 12.35 21.08ZM9.24 11.22C9.56 11.22 9.82 11.47 9.82 11.79L9.82 19.87C9.82 19.94 9.85 19.97 9.85 19.97L12.35 19.97C12.35 19.97 12.38 19.94 12.38 19.87L12.38 11.73C12.38 11.41 12.63 11.16 12.95 11.16L14.97 11.16C14.97 11.16 15 11.16 15 11.12L15 11.09L15.39 8.97C15.39 8.9 15.39 8.87 15.36 8.84C15.36 8.84 15.32 8.81 15.29 8.81L12.92 8.81C12.6 8.81 12.35 8.55 12.35 8.24L12.35 5.99C12.35 5.42 12.44 4.78 13.53 4.78L14.84 4.78C14.84 4.78 14.87 4.75 14.87 4.69L14.87 2.15C14.87 2.09 14.84 2.05 14.84 2.05L12.95 2.05C11.03 2.05 9.78 3.51 9.78 5.76L9.78 8.33C9.78 8.65 9.53 8.9 9.21 8.9L6.65 8.9C6.65 8.9 6.62 8.94 6.62 9L6.62 11.19C6.62 11.25 6.65 11.28 6.65 11.28L9.24 11.22Z" fill="#F6F6F6" fill-opacity="1.000000" fill-rule="nonzero"/>
	</g>
</svg>
