<svg width="22.000000" height="22.000000" viewBox="0 0 22 22" fill="none" xmlns="http://www.w3.org/2000/svg" xmlns:xlink="http://www.w3.org/1999/xlink">
	<desc>
			Created with Pixso.
	</desc>
	<defs>
		<clipPath id="clip1_200">
			<rect id="arcticons:telegram" rx="0.000000" width="21.000000" height="21.000000" transform="translate(0.500000 0.500000)" fill="white" fill-opacity="0"/>
		</clipPath>
	</defs>
	<rect id="arcticons:telegram" rx="0.000000" width="21.000000" height="21.000000" transform="translate(0.500000 0.500000)" fill="#FFFFFF" fill-opacity="0"/>
	<g clip-path="url(#clip1_200)">
		<path id="Vector" d="M19.93 5.47L17.06 19.03C16.86 19.99 16.28 20.22 15.48 19.78L8.65 14.71C8.62 14.69 8.6 14.66 8.58 14.63C8.57 14.61 8.56 14.57 8.56 14.54C8.56 14.51 8.57 14.47 8.58 14.45C8.6 14.42 8.62 14.39 8.65 14.37L16.54 7.22C16.9 6.9 16.46 6.74 15.99 7.03L6.08 13.31C6.05 13.33 6.02 13.34 5.98 13.34C5.95 13.35 5.91 13.34 5.88 13.33L1.67 12C0.74 11.72 0.74 11.08 1.88 10.62L18.71 4.1C18.85 4.04 18.99 4 19.14 4C19.72 4 20.17 4.51 19.93 5.47Z" stroke="#F6F6F6" stroke-opacity="1.000000" stroke-width="1.200000" stroke-linejoin="round"/>
	</g>
</svg>
