<svg width="54.000000" height="54.000000" viewBox="0 0 54 54" fill="none" xmlns="http://www.w3.org/2000/svg" xmlns:xlink="http://www.w3.org/1999/xlink">
	<desc>
			Created with Pixso.
	</desc>
	<defs>
		<filter id="filter_16_200_dd" x="0.000000" y="0.000000" width="54.000000" height="54.000000" filterUnits="userSpaceOnUse" color-interpolation-filters="sRGB">
			<feFlood flood-opacity="0" result="BackgroundImageFix"/>
			<feGaussianBlur in="BackgroundImage" stdDeviation="6.66667"/>
			<feComposite in2="SourceAlpha" operator="in" result="effect_backgroundBlur_1"/>
			<feBlend mode="normal" in="SourceGraphic" in2="effect_backgroundBlur_1" result="shape"/>
		</filter>
		<clipPath id="clip16_200">
			<rect id="Icon / report_line" rx="26.500000" width="53.000000" height="53.000000" transform="translate(0.500000 0.500000)" fill="white" fill-opacity="0"/>
		</clipPath>
	</defs>
	<g filter="url(#filter_16_200_dd)">
		<rect id="Icon / report_line" rx="26.500000" width="53.000000" height="53.000000" transform="translate(0.500000 0.500000)" fill="#7A6CF0" fill-opacity="1.000000"/>
		<g clip-path="url(#clip16_200)">
			<path id="Vector" d="M13.7 24.43L40.24 12.36" stroke="#FFFFFF" stroke-opacity="1.000000" stroke-width="2.300000" stroke-linejoin="round" stroke-linecap="round"/>
			<path id="Vector_2" d="M35.28 10.49L40.24 12.36L38.4 17.33" stroke="#FFFFFF" stroke-opacity="1.000000" stroke-width="2.300000" stroke-linejoin="round" stroke-linecap="round"/>
			<path id="Vector_3" d="M35.65 40.49L35.65 24.34C35.65 24.03 35.77 23.74 35.99 23.52C36.2 23.31 36.5 23.19 36.8 23.19L40.26 23.19C40.57 23.19 40.86 23.31 41.08 23.52C41.3 23.74 41.42 24.03 41.42 24.34L41.42 40.49L35.65 40.49Z" stroke="#FFFFFF" stroke-opacity="1.000000" stroke-width="2.300000" stroke-linejoin="round"/>
			<path id="Vector_4" d="M24.11 40.49L24.11 27.8C24.11 27.5 24.23 27.2 24.45 26.99C24.67 26.77 24.96 26.65 25.27 26.65L28.73 26.65C29.03 26.65 29.33 26.77 29.54 26.99C29.76 27.2 29.88 27.5 29.88 27.8L29.88 40.49L24.11 40.49Z" stroke="#FFFFFF" stroke-opacity="1.000000" stroke-width="2.300000" stroke-linejoin="round"/>
			<path id="Vector_5" d="M12.57 40.5L12.57 31.27C12.57 30.96 12.69 30.67 12.91 30.45C13.13 30.23 13.42 30.11 13.73 30.11L17.19 30.11C17.49 30.11 17.79 30.23 18 30.45C18.22 30.67 18.34 30.96 18.34 31.27L18.34 40.5L12.57 40.5Z" stroke="#FFFFFF" stroke-opacity="1.000000" stroke-width="2.300000" stroke-linejoin="round"/>
		</g>
		<rect id="Icon / report_line" rx="26.500000" width="53.000000" height="53.000000" transform="translate(0.500000 0.500000)" stroke="#F1F1F4" stroke-opacity="0" stroke-width="1.000000"/>
	</g>
</svg>
