<svg width="54.000000" height="54.000000" viewBox="0 0 54 54" fill="none" xmlns="http://www.w3.org/2000/svg" xmlns:xlink="http://www.w3.org/1999/xlink">
	<desc>
			Created with Pixso.
	</desc>
	<defs>
		<filter id="filter_16_286_dd" x="0.000000" y="0.000000" width="54.000000" height="54.000000" filterUnits="userSpaceOnUse" color-interpolation-filters="sRGB">
			<feFlood flood-opacity="0" result="BackgroundImageFix"/>
			<feGaussianBlur in="BackgroundImage" stdDeviation="6.66667"/>
			<feComposite in2="SourceAlpha" operator="in" result="effect_backgroundBlur_1"/>
			<feBlend mode="normal" in="SourceGraphic" in2="effect_backgroundBlur_1" result="shape"/>
		</filter>
		<clipPath id="clip16_286">
			<rect id="Icon / service_line" rx="26.500000" width="53.000000" height="53.000000" transform="translate(0.500000 0.500000)" fill="white" fill-opacity="0"/>
		</clipPath>
	</defs>
	<g filter="url(#filter_16_286_dd)">
		<rect id="Icon / service_line" rx="26.500000" width="53.000000" height="53.000000" transform="translate(0.500000 0.500000)" fill="#539DF5" fill-opacity="1.000000"/>
		<g clip-path="url(#clip16_286)">
			<path id="Vector" d="M12.52 37.35L12.52 28.13L16.97 28.13L16.97 37.35L12.52 37.35C11.03 28.89 11.85 12 27 12C42.14 12 42.96 28.89 41.48 37.35L37.02 37.35L37.02 28.13L41.48 28.13L41.48 37.35M28.11 41.95L28.11 39.65L25.88 39.65L25.88 41.95L28.11 41.95C31.03 42.21 35.85 41.34 38.84 37.35" stroke="#FAFAFA" stroke-opacity="1.000000" stroke-width="3.000000" stroke-linejoin="round"/>
		</g>
		<rect id="Icon / service_line" rx="26.500000" width="53.000000" height="53.000000" transform="translate(0.500000 0.500000)" stroke="#F1F1F4" stroke-opacity="0" stroke-width="1.000000"/>
	</g>
</svg>
