<svg width="54.000000" height="54.000000" viewBox="0 0 54 54" fill="none" xmlns="http://www.w3.org/2000/svg" xmlns:xlink="http://www.w3.org/1999/xlink">
	<desc>
			Created with Pixso.
	</desc>
	<defs>
		<filter id="filter_16_294_dd" x="0.000000" y="0.000000" width="54.000000" height="54.000000" filterUnits="userSpaceOnUse" color-interpolation-filters="sRGB">
			<feFlood flood-opacity="0" result="BackgroundImageFix"/>
			<feGaussianBlur in="BackgroundImage" stdDeviation="6.66667"/>
			<feComposite in2="SourceAlpha" operator="in" result="effect_backgroundBlur_1"/>
			<feBlend mode="normal" in="SourceGraphic" in2="effect_backgroundBlur_1" result="shape"/>
		</filter>
		<clipPath id="clip16_294">
			<rect id="Icon / settings_line" rx="26.500000" width="53.000000" height="53.000000" transform="translate(0.500000 0.500000)" fill="white" fill-opacity="0"/>
		</clipPath>
	</defs>
	<g filter="url(#filter_16_294_dd)">
		<rect id="Icon / settings_line" rx="26.500000" width="53.000000" height="53.000000" transform="translate(0.500000 0.500000)" fill="#54C447" fill-opacity="1.000000"/>
		<g clip-path="url(#clip16_294)">
			<path id="Vector" d="M23.47 10.54L23.27 11.57L22.52 15.32C21.32 15.8 20.24 16.47 19.25 17.26L15.59 16L14.61 15.68L14.1 16.59L11.58 20.94L11.07 21.85L11.81 22.52L14.65 25.02C14.55 25.66 14.41 26.31 14.41 27C14.41 27.68 14.55 28.33 14.65 28.97L11.81 31.47L11.07 32.14L11.58 33.05L14.1 37.4L14.61 38.31L15.59 37.99L19.25 36.73C20.24 37.52 21.32 38.19 22.52 38.67L23.27 42.42L23.47 43.45L30.55 43.45L30.75 42.42L31.5 38.67C32.7 38.19 33.78 37.52 34.76 36.73L38.43 37.99L39.41 38.31L39.92 37.4L42.44 33.05L42.95 32.14L42.2 31.47L39.37 28.97C39.47 28.33 39.61 27.68 39.61 27C39.61 26.31 39.47 25.66 39.37 25.02L42.2 22.52L42.95 21.85L42.44 20.94L39.92 16.59L39.41 15.68L38.43 16L34.76 17.26C33.78 16.47 32.7 15.8 31.5 15.32L30.75 11.57L30.55 10.54L23.47 10.54ZM25.51 13.07L28.51 13.07L29.14 16.35L29.29 17.11L30 17.34C31.43 17.79 32.73 18.55 33.82 19.56L34.37 20.07L35.08 19.83L38.27 18.73L39.76 21.3L37.24 23.55L36.65 24.03L36.85 24.78C37.01 25.5 37.09 26.24 37.09 27C37.09 27.75 37.01 28.49 36.85 29.21L36.69 29.96L37.24 30.44L39.76 32.69L38.27 35.26L35.08 34.16L34.37 33.92L33.82 34.43C32.73 35.44 31.43 36.2 30 36.65L29.29 36.89L29.14 37.64L28.51 40.92L25.51 40.92L24.88 37.64L24.73 36.89L24.02 36.65C22.59 36.2 21.29 35.44 20.2 34.43L19.65 33.92L18.94 34.16L15.75 35.26L14.26 32.69L16.77 30.44L17.37 29.96L17.17 29.21C17.01 28.49 16.93 27.75 16.93 27C16.93 26.24 17.01 25.5 17.17 24.78L17.37 24.03L16.77 23.55L14.26 21.3L15.75 18.73L18.94 19.83L19.65 20.07L20.2 19.56C21.29 18.55 22.59 17.79 24.02 17.34L24.73 17.11L24.88 16.35L25.51 13.07ZM27.01 20.67C23.55 20.67 20.71 23.51 20.71 27C20.71 30.48 23.55 33.32 27.01 33.32C30.47 33.32 33.31 30.48 33.31 27C33.31 23.51 30.47 20.67 27.01 20.67ZM27.01 23.2C29.11 23.2 30.79 24.88 30.79 27C30.79 29.11 29.11 30.79 27.01 30.79C24.91 30.79 23.23 29.11 23.23 27C23.23 24.88 24.91 23.2 27.01 23.2Z" fill="#FFFFFF" fill-opacity="1.000000" fill-rule="evenodd"/>
		</g>
		<rect id="Icon / settings_line" rx="26.500000" width="53.000000" height="53.000000" transform="translate(0.500000 0.500000)" stroke="#F1F1F4" stroke-opacity="0" stroke-width="1.000000"/>
	</g>
</svg>
