<svg width="54.000000" height="54.000000" viewBox="0 0 54 54" fill="none" xmlns="http://www.w3.org/2000/svg" xmlns:xlink="http://www.w3.org/1999/xlink">
	<desc>
			Created with Pixso.
	</desc>
	<defs>
		<filter id="filter_16_305_dd" x="0.000000" y="0.000000" width="54.000000" height="54.000000" filterUnits="userSpaceOnUse" color-interpolation-filters="sRGB">
			<feFlood flood-opacity="0" result="BackgroundImageFix"/>
			<feGaussianBlur in="BackgroundImage" stdDeviation="6.66667"/>
			<feComposite in2="SourceAlpha" operator="in" result="effect_backgroundBlur_1"/>
			<feBlend mode="normal" in="SourceGraphic" in2="effect_backgroundBlur_1" result="shape"/>
		</filter>
		<clipPath id="clip16_305">
			<rect id="Icon / hands_line" rx="26.500000" width="53.000000" height="53.000000" transform="translate(0.500000 0.500000)" fill="white" fill-opacity="0"/>
		</clipPath>
	</defs>
	<g filter="url(#filter_16_305_dd)">
		<rect id="Icon / hands_line" rx="26.500000" width="53.000000" height="53.000000" transform="translate(0.500000 0.500000)" fill="#196FF1" fill-opacity="1.000000"/>
		<g clip-path="url(#clip16_305)">
			<path id="Vector" d="M49.23 24.09L44.68 14.89C44.53 14.6 44.33 14.33 44.08 14.11C43.83 13.9 43.54 13.73 43.23 13.63C42.92 13.52 42.59 13.48 42.26 13.5C41.94 13.53 41.62 13.61 41.32 13.76L36.76 16.07L27.27 13.53C27.09 13.48 26.9 13.48 26.72 13.53L17.23 16.07L12.67 13.76C12.38 13.61 12.06 13.52 11.73 13.5C11.4 13.48 11.07 13.52 10.76 13.62C10.45 13.73 10.16 13.9 9.91 14.11C9.66 14.33 9.46 14.59 9.31 14.89L4.76 24.09C4.46 24.69 4.41 25.38 4.62 26.02C4.83 26.65 5.28 27.18 5.88 27.48L10.73 29.93L20.66 37.08C20.76 37.16 20.89 37.22 21.01 37.25L32.44 40.14C32.53 40.16 32.62 40.17 32.71 40.17C32.99 40.17 33.27 40.06 33.47 39.85L43.34 29.88L48.11 27.48C48.71 27.18 49.16 26.65 49.37 26.02C49.58 25.38 49.53 24.69 49.23 24.09ZM39.77 30.43L33.37 25.26C33.17 25.09 32.91 25.01 32.64 25.03C32.38 25.04 32.13 25.15 31.94 25.34C28.61 28.73 24.89 28.3 22.52 26.77C22.47 26.74 22.43 26.7 22.4 26.65C22.37 26.61 22.35 26.55 22.35 26.5C22.34 26.45 22.35 26.4 22.36 26.35C22.38 26.3 22.4 26.26 22.44 26.22L30.29 18.54L36.33 18.54L41.41 28.78L39.77 30.43ZM6.66 25.33C6.63 25.24 6.63 25.15 6.68 25.06L11.23 15.86C11.26 15.8 11.31 15.75 11.37 15.71C11.42 15.68 11.49 15.66 11.55 15.66C11.61 15.66 11.66 15.67 11.71 15.7L15.68 17.7L10.8 27.55L6.83 25.55C6.79 25.53 6.75 25.5 6.72 25.46C6.69 25.42 6.67 25.38 6.66 25.33ZM32.38 37.89L21.74 35.21L12.65 28.65L17.86 18.14L27 15.7L29.64 16.4C29.44 16.44 29.25 16.54 29.1 16.68L20.94 24.68C20.68 24.95 20.47 25.27 20.35 25.63C20.23 25.98 20.18 26.36 20.22 26.74C20.26 27.12 20.39 27.48 20.59 27.8C20.78 28.12 21.05 28.39 21.37 28.59C24.98 30.92 29.36 30.48 32.76 27.53L38.25 31.97L32.38 37.89ZM47.33 25.33C47.32 25.38 47.3 25.42 47.27 25.46C47.24 25.49 47.2 25.52 47.16 25.54L43.19 27.55L38.31 17.7L42.28 15.7C42.32 15.68 42.36 15.66 42.41 15.66C42.46 15.66 42.51 15.66 42.55 15.68C42.59 15.69 42.64 15.72 42.67 15.75C42.71 15.78 42.74 15.82 42.76 15.86L47.31 25.06C47.36 25.15 47.36 25.24 47.33 25.33ZM27.33 43.68C27.26 43.95 27.09 44.19 26.84 44.34C26.6 44.49 26.31 44.53 26.03 44.46L18.58 42.58C18.45 42.55 18.33 42.49 18.22 42.41L13.52 39.02C13.28 38.86 13.13 38.6 13.08 38.32C13.03 38.04 13.1 37.75 13.27 37.51C13.43 37.28 13.68 37.12 13.97 37.07C14.25 37.03 14.53 37.1 14.77 37.26L19.3 40.53L26.55 42.36C26.69 42.39 26.82 42.46 26.93 42.54C27.04 42.63 27.14 42.73 27.21 42.85C27.28 42.98 27.33 43.11 27.35 43.25C27.37 43.39 27.37 43.54 27.33 43.68L27.33 43.68Z" fill="#F6F6F6" fill-opacity="1.000000" fill-rule="evenodd"/>
		</g>
	</g>
</svg>
