<svg width="54.000000" height="54.000000" viewBox="0 0 54 54" fill="none" xmlns="http://www.w3.org/2000/svg" xmlns:xlink="http://www.w3.org/1999/xlink">
	<desc>
			Created with Pixso.
	</desc>
	<defs>
		<filter id="filter_16_310_dd" x="0.000000" y="0.000000" width="54.000000" height="54.000000" filterUnits="userSpaceOnUse" color-interpolation-filters="sRGB">
			<feFlood flood-opacity="0" result="BackgroundImageFix"/>
			<feGaussianBlur in="BackgroundImage" stdDeviation="6.66667"/>
			<feComposite in2="SourceAlpha" operator="in" result="effect_backgroundBlur_1"/>
			<feBlend mode="normal" in="SourceGraphic" in2="effect_backgroundBlur_1" result="shape"/>
		</filter>
		<clipPath id="clip16_310">
			<rect id="Icon / wallet_line" rx="26.500000" width="53.000000" height="53.000000" transform="translate(0.500000 0.500000)" fill="white" fill-opacity="0"/>
		</clipPath>
	</defs>
	<g filter="url(#filter_16_310_dd)">
		<rect id="Icon / wallet_line" rx="26.500000" width="53.000000" height="53.000000" transform="translate(0.500000 0.500000)" fill="#F45A69" fill-opacity="1.000000"/>
		<g clip-path="url(#clip16_310)">
			<path id="Vector" d="M30.67 24.76C30.54 24.76 30.42 24.8 30.33 24.89C30.24 24.97 30.19 25.09 30.18 25.21L30.18 28.59C30.19 28.72 30.24 28.83 30.33 28.92C30.42 29 30.54 29.05 30.67 29.05L41.33 29.05C41.46 29.05 41.58 29 41.67 28.92C41.76 28.83 41.81 28.72 41.81 28.59L41.81 25.21C41.81 25.09 41.76 24.97 41.67 24.89C41.58 24.8 41.46 24.76 41.33 24.76L30.67 24.76ZM37.2 14C38.68 14.06 39.74 14.34 40.41 14.93C41.08 15.52 41.42 16.36 41.48 17.48L41.48 20.69C41.48 20.96 41.36 21.22 41.16 21.41C40.96 21.61 40.68 21.71 40.4 21.71C40.25 21.71 40.11 21.68 39.98 21.63C39.85 21.58 39.73 21.51 39.63 21.41C39.53 21.32 39.45 21.21 39.39 21.08C39.34 20.96 39.31 20.82 39.3 20.69L39.31 17.54C39.27 16.96 39.12 16.6 38.92 16.41C38.72 16.24 38.1 16.08 37.15 16.03L16.23 16.03C15.37 16.06 14.81 16.22 14.54 16.44C14.33 16.61 14.18 17.08 14.18 17.89L14.17 35.89C14.25 36.68 14.43 37.2 14.66 37.46C14.84 37.66 15.39 37.86 16.19 37.96L37.17 37.96C38.16 37.98 38.74 37.83 38.93 37.65C39.15 37.44 39.3 36.89 39.3 35.99L39.3 32.86C39.3 32.3 39.79 31.84 40.4 31.84C41 31.84 41.48 32.3 41.48 32.86L41.48 35.99C41.48 37.36 41.19 38.39 40.5 39.06C39.79 39.75 38.66 40.02 37.15 39.99L16.06 39.99C14.62 39.83 13.6 39.45 12.98 38.76C12.43 38.13 12.12 37.24 12 35.99L12 17.89C12 16.55 12.33 15.54 13.11 14.91C13.81 14.33 14.83 14.04 16.19 14L37.2 14ZM41.33 22.72C42.8 22.72 44 23.84 44 25.21L44 28.59C44 29.97 42.8 31.08 41.33 31.08L30.67 31.08C29.2 31.08 28 29.97 28 28.59L28 25.21C28 23.84 29.2 22.72 30.67 22.72L41.33 22.72ZM33.33 25.69C32.6 25.69 32 26.24 32 26.92C32 27.59 32.6 28.14 33.33 28.14C34.07 28.14 34.67 27.59 34.67 26.92C34.67 26.24 34.07 25.69 33.33 25.69L33.33 25.69Z" fill="#FAFAFA" fill-opacity="1.000000" fill-rule="evenodd"/>
			<path id="Vector" d="M40.84 14.93Q40.73 14.81 40.61 14.71L40.61 14.71Q40.07 14.23 39.19 13.98Q38.38 13.75 37.22 13.7L37.21 13.7L16.18 13.7L16.18 13.7Q15.11 13.73 14.32 13.96Q13.49 14.21 12.92 14.68Q12.81 14.76 12.72 14.86Q11.7 15.86 11.7 17.89L11.7 36L11.7 36.02Q11.79 37 12.04 37.71Q12.31 38.45 12.76 38.96Q13.26 39.52 14.1 39.85Q14.89 40.16 16.03 40.29L16.04 40.29L37.15 40.29Q38.35 40.32 39.2 40.09Q40.13 39.84 40.71 39.28Q41.27 38.73 41.54 37.88Q41.78 37.08 41.78 35.99L41.78 32.86Q41.78 32.73 41.76 32.6Q41.73 32.47 41.67 32.34Q41.63 32.25 41.59 32.18Q41.5 32.04 41.37 31.92Q41.29 31.85 41.21 31.79Q41.08 31.7 40.93 31.64Q40.83 31.6 40.72 31.58Q40.56 31.54 40.4 31.54Q40.23 31.54 40.07 31.58Q39.96 31.6 39.86 31.64Q39.71 31.7 39.58 31.79Q39.49 31.85 39.42 31.92Q39.29 32.04 39.2 32.18Q39.15 32.25 39.12 32.34Q39.06 32.47 39.03 32.6Q39 32.73 39 32.86L39 35.99Q39 36.6 38.91 37.01Q38.83 37.33 38.72 37.43Q38.69 37.46 38.6 37.5Q38.48 37.55 38.29 37.58Q37.85 37.67 37.17 37.66L16.21 37.66Q15.67 37.59 15.29 37.46Q15.12 37.41 15.01 37.35Q14.92 37.3 14.89 37.26Q14.75 37.11 14.65 36.78Q14.53 36.41 14.47 35.87L14.48 17.89Q14.48 17.35 14.57 17Q14.64 16.75 14.73 16.67Q14.89 16.54 15.24 16.46Q15.64 16.35 16.24 16.33L37.14 16.33Q37.8 16.36 38.25 16.47Q38.44 16.51 38.58 16.56Q38.68 16.61 38.72 16.64Q38.82 16.73 38.89 16.93Q38.98 17.18 39.01 17.55L39 20.69Q39.01 20.82 39.03 20.94Q39.06 21.07 39.12 21.21Q39.16 21.31 39.22 21.4Q39.31 21.53 39.42 21.63Q39.51 21.71 39.6 21.77Q39.73 21.86 39.87 21.91Q40.03 21.98 40.2 22Q40.3 22.01 40.39 22.01Q40.54 22.01 40.68 21.98Q40.8 21.96 40.92 21.91Q41.06 21.86 41.19 21.77Q41.28 21.71 41.37 21.63Q41.48 21.53 41.56 21.4Q41.63 21.31 41.67 21.21Q41.72 21.09 41.75 20.98Q41.78 20.84 41.78 20.69L41.78 17.47L41.78 17.46Q41.69 15.85 40.84 14.93ZM39.31 17.54L39.3 20.69C39.31 20.82 39.34 20.96 39.39 21.08C39.45 21.21 39.53 21.32 39.63 21.41C39.73 21.51 39.85 21.58 39.98 21.63C40.11 21.68 40.25 21.71 40.4 21.71C40.68 21.71 40.96 21.61 41.16 21.41C41.36 21.22 41.48 20.96 41.48 20.69L41.48 17.48C41.42 16.36 41.08 15.52 40.41 14.93C39.74 14.34 38.68 14.06 37.2 14L16.19 14C14.83 14.04 13.81 14.33 13.11 14.91C12.33 15.54 12 16.55 12 17.89L12 35.99C12.12 37.24 12.43 38.13 12.98 38.76C13.6 39.45 14.62 39.83 16.06 39.99L37.15 39.99C38.66 40.02 39.79 39.75 40.5 39.06C41.19 38.39 41.48 37.36 41.48 35.99L41.48 32.86C41.48 32.3 41 31.84 40.4 31.84C39.79 31.84 39.3 32.3 39.3 32.86L39.3 35.99C39.3 36.89 39.15 37.44 38.93 37.65C38.74 37.83 38.16 37.98 37.17 37.96L16.19 37.96C15.39 37.86 14.84 37.66 14.66 37.46C14.43 37.2 14.25 36.68 14.17 35.89L14.18 17.89C14.18 17.08 14.33 16.61 14.54 16.44C14.81 16.22 15.37 16.06 16.23 16.03L37.15 16.03C38.1 16.08 38.72 16.24 38.92 16.41C39.12 16.6 39.27 16.96 39.31 17.54ZM44.3 28.59L44.3 25.21Q44.3 24.93 44.24 24.67Q44.18 24.39 44.06 24.12Q43.98 23.95 43.89 23.8Q43.69 23.49 43.42 23.23Q43.26 23.08 43.09 22.96Q42.81 22.77 42.48 22.64Q42.27 22.55 42.05 22.5Q41.7 22.42 41.33 22.42L30.67 22.42Q30.3 22.42 29.95 22.5Q29.73 22.55 29.52 22.64Q29.19 22.77 28.91 22.96Q28.74 23.09 28.58 23.23Q28.3 23.49 28.11 23.8Q28.01 23.95 27.94 24.12Q27.82 24.39 27.76 24.67Q27.7 24.93 27.7 25.21L27.7 28.59Q27.7 28.87 27.76 29.13Q27.82 29.42 27.94 29.69Q28.01 29.85 28.11 30.01Q28.3 30.32 28.58 30.57Q28.74 30.72 28.91 30.84Q29.19 31.04 29.52 31.17Q29.73 31.25 29.95 31.3Q30.3 31.38 30.67 31.38L41.33 31.38Q41.7 31.38 42.05 31.3Q42.27 31.25 42.48 31.17Q42.81 31.04 43.09 30.84Q43.26 30.72 43.42 30.57Q43.69 30.32 43.89 30.01Q43.98 29.85 44.06 29.69Q44.18 29.42 44.24 29.14Q44.3 28.87 44.3 28.59ZM41.33 22.72C42.8 22.72 44 23.84 44 25.21L44 28.59C44 29.97 42.8 31.08 41.33 31.08L30.67 31.08C29.2 31.08 28 29.97 28 28.59L28 25.21C28 23.84 29.2 22.72 30.67 22.72L41.33 22.72ZM30.67 24.76C30.54 24.76 30.42 24.8 30.33 24.89C30.24 24.97 30.19 25.09 30.18 25.21L30.18 28.59C30.19 28.72 30.24 28.83 30.33 28.92C30.42 29 30.54 29.05 30.67 29.05L41.33 29.05C41.46 29.05 41.58 29 41.67 28.92C41.76 28.83 41.81 28.72 41.81 28.59L41.81 25.21C41.81 25.09 41.76 24.97 41.67 24.89C41.58 24.8 41.46 24.76 41.33 24.76L30.67 24.76ZM30.49 25.17Q30.5 25.14 30.53 25.11Q30.55 25.09 30.57 25.08Q30.62 25.06 30.67 25.06L41.33 25.06Q41.38 25.06 41.42 25.08Q41.44 25.09 41.47 25.11Q41.5 25.14 41.51 25.18Q41.51 25.19 41.51 25.21L41.51 28.59Q41.51 28.61 41.51 28.63Q41.49 28.67 41.46 28.7Q41.45 28.71 41.43 28.72Q41.38 28.75 41.33 28.75L30.67 28.75Q30.62 28.75 30.58 28.73Q30.55 28.72 30.53 28.7Q30.5 28.66 30.49 28.62Q30.48 28.61 30.48 28.59L30.48 25.21Q30.48 25.19 30.49 25.17ZM33.33 25.39L33.33 25.39Q33.13 25.39 32.94 25.43Q32.82 25.46 32.71 25.5Q32.52 25.58 32.36 25.69Q32.27 25.75 32.19 25.83Q32.03 25.97 31.93 26.14Q31.87 26.22 31.83 26.31Q31.76 26.46 31.73 26.62Q31.7 26.77 31.7 26.92Q31.7 27.07 31.73 27.21Q31.76 27.37 31.83 27.52Q31.87 27.61 31.93 27.69Q32.03 27.86 32.19 28Q32.27 28.08 32.36 28.14Q32.52 28.25 32.71 28.33Q32.82 28.37 32.94 28.4Q33.13 28.44 33.33 28.44Q33.54 28.44 33.73 28.4Q33.85 28.37 33.96 28.33Q34.15 28.25 34.31 28.14Q34.4 28.08 34.48 28Q34.63 27.86 34.74 27.69Q34.79 27.61 34.83 27.52Q34.9 27.37 34.94 27.21Q34.97 27.07 34.97 26.92Q34.97 26.77 34.94 26.62Q34.9 26.46 34.84 26.31Q34.79 26.22 34.74 26.14Q34.63 25.97 34.48 25.83Q34.4 25.75 34.3 25.68Q34.15 25.58 33.96 25.5Q33.85 25.46 33.73 25.43Q33.54 25.39 33.33 25.39ZM33.33 25.69L33.33 25.69C34.07 25.69 34.67 26.24 34.67 26.92C34.67 27.59 34.07 28.14 33.33 28.14C32.6 28.14 32 27.59 32 26.92C32 26.24 32.6 25.69 33.33 25.69Z" fill="#FFFFFF" fill-opacity="1.000000" fill-rule="evenodd"/>
		</g>
	</g>
</svg>
