<svg width="144.000000" height="26.000000" viewBox="0 0 144 26" fill="none" xmlns="http://www.w3.org/2000/svg" xmlns:xlink="http://www.w3.org/1999/xlink">
	<desc>
			Created with Pixso.
	</desc>
	<defs>
		<clipPath id="clip1_258">
			<rect id="logo_gfleads" rx="0.000000" width="143.000000" height="25.000000" transform="translate(0.500000 0.500000)" fill="white" fill-opacity="0"/>
		</clipPath>
	</defs>
	<rect id="logo_gfleads" rx="0.000000" width="143.000000" height="25.000000" transform="translate(0.500000 0.500000)" fill="#FFFFFF" fill-opacity="0"/>
	<g clip-path="url(#clip1_258)">
		<path id="Vector" d="M7.84 1.29C10.69 0.26 13.95 0.35 16.76 1.49C18.55 2.21 20.14 3.48 21.17 5.11C22.11 6.52 22.51 8.24 22.63 9.92C20.77 9.92 18.93 9.92 17.08 9.92C17.08 8.71 16.69 7.43 15.76 6.62C14.59 5.59 12.93 5.36 11.41 5.48C9.81 5.63 8.24 6.49 7.4 7.9C6.1 9.97 5.95 12.56 6.33 14.93C6.67 16.73 7.57 18.56 9.21 19.5C10.51 20.31 12.11 20.38 13.59 20.16C15.12 19.96 16.64 19.2 17.55 17.91C17.61 17.33 17.56 16.75 17.58 16.17C15.71 16.14 13.87 16.16 12.01 16.14C12.01 14.51 12.01 12.89 12.01 11.26C15.64 11.26 19.27 11.26 22.89 11.26C22.89 15.74 22.89 20.21 22.89 24.68C21.49 24.68 20.07 24.68 18.67 24.7C18.5 24.33 18.36 23.96 18.16 23.61C16.39 24.68 14.29 25.15 12.21 25.09C9.78 25.19 7.29 24.46 5.28 23.05C3.04 21.45 1.6 18.93 0.98 16.27C0.62 14.76 0.63 13.18 0.67 11.63C0.75 9.6 1.37 7.58 2.36 5.81C3.63 3.75 5.56 2.08 7.84 1.29Z" fill="#FFC107" fill-opacity="1.000000" fill-rule="nonzero"/>
		<path id="Vector" d="M26.39 1.09C31.98 1.06 37.6 1.09 43.2 1.07C43.2 2.67 43.2 4.27 43.2 5.87C39.39 5.87 35.59 5.87 31.78 5.87C31.77 7.33 31.78 8.78 31.78 10.24C35.09 10.26 38.42 10.22 41.73 10.26C41.73 11.85 41.73 13.45 41.73 15.05C38.42 15.07 35.09 15.05 31.78 15.05C31.78 18.26 31.8 21.47 31.78 24.7C30 24.69 28.19 24.7 26.4 24.7C26.39 16.83 26.39 8.96 26.39 1.09Z" fill="#F3F9FF" fill-opacity="1.000000" fill-rule="nonzero"/>
		<path id="Vector" d="M49.8 24.7L49.8 0.97L55.5 0.97L55.5 20.04L65.31 20.04L65.31 24.7L49.8 24.7Z" fill="#F3F9FF" fill-opacity="1.000000" fill-rule="nonzero"/>
		<path id="Vector" d="M76.52 25.04C74.67 25.04 73.08 24.67 71.74 23.93C70.41 23.19 69.37 22.13 68.65 20.77C67.93 19.39 67.58 17.75 67.58 15.87C67.58 14.04 67.95 12.42 68.67 11.04C69.39 9.67 70.41 8.59 71.73 7.82C73.05 7.04 74.58 6.66 76.37 6.66C77.62 6.66 78.78 6.86 79.83 7.24C80.87 7.63 81.77 8.22 82.54 8.99C83.29 9.77 83.89 10.73 84.31 11.85C84.73 12.98 84.94 14.27 84.94 15.74L84.94 17.15L69.57 17.15L69.57 13.89L79.7 13.89C79.7 13.28 79.55 12.74 79.28 12.27C78.99 11.8 78.63 11.43 78.14 11.16C77.66 10.89 77.11 10.76 76.49 10.76C75.85 10.76 75.3 10.89 74.8 11.18C74.3 11.46 73.9 11.85 73.61 12.32C73.33 12.81 73.16 13.35 73.15 13.95L73.15 17.32C73.15 18.04 73.28 18.68 73.56 19.22C73.85 19.76 74.25 20.19 74.77 20.48C75.28 20.78 75.9 20.93 76.64 20.93C77.14 20.93 77.59 20.87 77.99 20.73C78.39 20.6 78.74 20.4 79.04 20.11C79.33 19.84 79.56 19.5 79.7 19.12L84.86 19.27C84.64 20.43 84.18 21.46 83.46 22.31C82.74 23.17 81.79 23.84 80.6 24.31C79.41 24.8 78.06 25.04 76.52 25.04Z" fill="#F3F9FF" fill-opacity="1.000000" fill-rule="nonzero"/>
		<path id="Vector" d="M92.78 25C91.64 25 90.66 24.82 89.79 24.43C88.92 24.05 88.23 23.47 87.73 22.7C87.23 21.93 86.98 20.95 86.98 19.77C86.98 18.78 87.15 17.96 87.5 17.27C87.85 16.6 88.32 16.04 88.92 15.6C89.52 15.18 90.22 14.86 91.01 14.63C91.79 14.41 92.64 14.26 93.55 14.17C94.55 14.07 95.37 13.99 95.97 13.87C96.59 13.77 97.02 13.62 97.31 13.42C97.59 13.21 97.72 12.95 97.72 12.58L97.72 12.53C97.72 11.94 97.52 11.47 97.11 11.15C96.71 10.83 96.15 10.66 95.45 10.66C94.7 10.66 94.12 10.83 93.66 11.15C93.21 11.47 92.93 11.92 92.79 12.49L87.6 12.31C87.75 11.23 88.15 10.26 88.78 9.4C89.42 8.54 90.3 7.87 91.42 7.38C92.54 6.89 93.9 6.64 95.49 6.64C96.62 6.64 97.66 6.77 98.61 7.04C99.56 7.31 100.4 7.7 101.1 8.2C101.8 8.71 102.35 9.33 102.74 10.07C103.12 10.81 103.32 11.63 103.32 12.58L103.32 24.67L98.03 24.67L98.03 22.2L97.89 22.2C97.57 22.8 97.17 23.31 96.69 23.73C96.2 24.15 95.64 24.45 94.97 24.67C94.3 24.89 93.6 25 92.78 25ZM94.52 21.29C95.12 21.29 95.67 21.17 96.15 20.92C96.64 20.66 97.02 20.33 97.32 19.89C97.61 19.45 97.76 18.95 97.76 18.36L97.76 16.68C97.59 16.76 97.41 16.85 97.17 16.91C96.94 16.98 96.71 17.05 96.44 17.12C96.17 17.18 95.89 17.23 95.6 17.29C95.32 17.34 95.05 17.37 94.78 17.42C94.25 17.5 93.8 17.64 93.43 17.81C93.06 17.99 92.78 18.21 92.58 18.5C92.38 18.78 92.28 19.12 92.28 19.5C92.28 20.09 92.49 20.55 92.91 20.85C93.35 21.14 93.88 21.29 94.52 21.29Z" fill="#F3F9FF" fill-opacity="1.000000" fill-rule="nonzero"/>
		<path id="Vector" d="M113.24 24.95C111.93 24.95 110.75 24.62 109.68 23.93C108.61 23.25 107.75 22.23 107.12 20.87C106.48 19.5 106.17 17.82 106.17 15.8C106.17 13.72 106.5 11.99 107.15 10.64C107.81 9.3 108.67 8.29 109.74 7.65C110.81 6.99 111.97 6.67 113.2 6.67C114.14 6.67 114.92 6.84 115.59 7.16C116.26 7.48 116.8 7.9 117.23 8.39C117.66 8.89 117.98 9.41 118.22 9.95L118.33 9.95L118.33 0.97L123.96 0.97L123.96 24.7L118.4 24.7L118.4 21.81L118.23 21.81C118 22.36 117.66 22.87 117.21 23.36C116.78 23.83 116.23 24.21 115.58 24.52C114.91 24.8 114.14 24.95 113.24 24.95ZM115.19 20.55C115.88 20.55 116.46 20.35 116.95 19.96C117.43 19.57 117.8 19.02 118.07 18.31C118.33 17.6 118.45 16.76 118.45 15.8C118.45 14.83 118.32 13.99 118.07 13.3C117.82 12.59 117.43 12.05 116.95 11.68C116.46 11.31 115.88 11.11 115.19 11.11C114.49 11.11 113.9 11.3 113.42 11.68C112.94 12.07 112.57 12.61 112.32 13.32C112.07 14.02 111.95 14.85 111.95 15.8C111.95 16.76 112.08 17.6 112.33 18.31C112.58 19.02 112.95 19.57 113.44 19.96C113.9 20.35 114.51 20.55 115.19 20.55Z" fill="#F3F9FF" fill-opacity="1.000000" fill-rule="nonzero"/>
		<path id="Vector" d="M142.97 12.34L137.81 12.47C137.75 12.1 137.61 11.77 137.37 11.48C137.14 11.2 136.82 10.96 136.45 10.79C136.07 10.62 135.63 10.54 135.13 10.54C134.48 10.54 133.93 10.67 133.46 10.93C133.01 11.2 132.78 11.55 132.79 11.99C132.79 12.34 132.93 12.64 133.21 12.89C133.49 13.15 134.01 13.35 134.76 13.52L138.17 14.17C139.95 14.51 141.25 15.08 142.12 15.87C142.99 16.66 143.42 17.7 143.42 19C143.42 20.23 143.05 21.29 142.35 22.18C141.65 23.08 140.68 23.77 139.44 24.28C138.22 24.78 136.8 25.02 135.23 25.02C132.71 25.02 130.72 24.5 129.27 23.46C127.81 22.41 126.98 21 126.78 19.25L132.34 19.12C132.46 19.77 132.78 20.26 133.29 20.6C133.81 20.93 134.46 21.1 135.27 21.1C135.98 21.1 136.57 20.97 137.02 20.7C137.47 20.43 137.71 20.07 137.71 19.62C137.71 19.22 137.52 18.9 137.17 18.65C136.82 18.41 136.28 18.21 135.55 18.07L132.46 17.48C130.69 17.16 129.37 16.56 128.5 15.69C127.63 14.81 127.19 13.68 127.21 12.34C127.21 11.14 127.51 10.14 128.15 9.28C128.78 8.44 129.68 7.78 130.87 7.34C132.04 6.89 133.43 6.67 135.03 6.67C137.42 6.67 139.31 7.18 140.7 8.18C142.07 9.19 142.82 10.57 142.97 12.34Z" fill="#F3F9FF" fill-opacity="1.000000" fill-rule="nonzero"/>
	</g>
</svg>
