<svg width="32.662170" height="25.531250" viewBox="0 0 32.6622 25.5312" fill="none" xmlns="http://www.w3.org/2000/svg" xmlns:xlink="http://www.w3.org/1999/xlink">
	<desc>
			Created with Pixso.
	</desc>
	<defs/>
	<path id="Vector" d="M21.57 12.02L14.44 7.27C14.31 7.18 14.15 7.13 13.99 7.12C13.83 7.11 13.67 7.15 13.53 7.22C13.39 7.3 13.27 7.41 13.18 7.55C13.1 7.69 13.06 7.85 13.06 8.01L13.06 17.51C13.06 17.67 13.1 17.83 13.18 17.97C13.27 18.11 13.39 18.22 13.53 18.3C13.67 18.37 13.83 18.41 13.99 18.4C14.15 18.39 14.31 18.34 14.44 18.25L21.57 13.5C21.69 13.42 21.79 13.31 21.86 13.18C21.93 13.05 21.97 12.91 21.97 12.76C21.97 12.61 21.93 12.47 21.86 12.34C21.79 12.21 21.69 12.1 21.57 12.02ZM14.84 15.85L14.84 9.67L19.47 12.76L14.84 15.85ZM31.82 4.15C31.69 3.65 31.45 3.19 31.1 2.8C30.76 2.41 30.33 2.11 29.85 1.92C24.78 -0.04 16.66 0 16.32 0C15.99 0 7.86 -0.04 2.79 1.92C2.31 2.11 1.88 2.41 1.54 2.8C1.2 3.19 0.95 3.65 0.83 4.15C0.45 5.62 0 8.31 0 12.76C0 17.21 0.45 19.9 0.83 21.37C0.96 21.87 1.2 22.33 1.54 22.72C1.89 23.11 2.32 23.41 2.8 23.6C7.86 25.56 15.98 25.53 16.32 25.53L16.43 25.53C17.45 25.53 25.04 25.46 29.85 23.6C30.34 23.41 30.77 23.11 31.11 22.72C31.45 22.33 31.7 21.87 31.83 21.37C32.2 19.91 32.66 17.22 32.66 12.76C32.66 8.3 32.21 5.62 31.82 4.15ZM30.1 20.92C30.04 21.15 29.93 21.36 29.77 21.54C29.62 21.72 29.42 21.86 29.2 21.94C24.45 23.77 16.41 23.75 16.32 23.75C16.24 23.75 8.2 23.77 3.45 21.94C3.23 21.85 3.03 21.71 2.88 21.54C2.72 21.36 2.61 21.15 2.56 20.92C2.2 19.56 1.78 17.03 1.78 12.76C1.78 8.49 2.2 5.96 2.55 4.6C2.61 4.37 2.72 4.16 2.87 3.98C3.03 3.8 3.22 3.66 3.44 3.58C8.02 1.82 15.66 1.78 16.29 1.78L16.32 1.78C16.4 1.78 24.44 1.75 29.2 3.58C29.42 3.67 29.61 3.81 29.77 3.98C29.92 4.16 30.03 4.37 30.09 4.6C30.44 5.96 30.87 8.49 30.87 12.77C30.87 17.04 30.45 19.56 30.1 20.92Z" fill="#196FF1" fill-opacity="1.000000" fill-rule="nonzero"/>
</svg>
