<svg width="31.583374" height="28.416016" viewBox="0 0 31.5834 28.416" fill="none" xmlns="http://www.w3.org/2000/svg" xmlns:xlink="http://www.w3.org/1999/xlink">
	<desc>
			Created with Pixso.
	</desc>
	<defs/>
	<path id="Vector" d="M16.95 13.27L15.72 12.1C15.59 11.98 15.44 11.87 15.28 11.8C15.02 11.69 14.73 11.66 14.45 11.71C14.17 11.76 13.92 11.89 13.72 12.08C13.29 12.49 12.51 13.22 11.1 14.57C8.4 17.14 3.39 21.44 1.13 23.28C1.02 23.37 0.92 23.49 0.86 23.62C0.79 23.74 0.75 23.88 0.75 24.03C0.74 24.17 0.76 24.31 0.82 24.45C0.87 24.58 0.95 24.7 1.06 24.8L3.68 27.36C3.78 27.46 3.91 27.54 4.05 27.59C4.19 27.64 4.33 27.67 4.48 27.66C4.63 27.66 4.78 27.62 4.91 27.56C5.05 27.5 5.17 27.41 5.26 27.3C7.23 25.07 11.73 20.25 14.4 17.71C15.77 16.41 16.53 15.66 16.97 15.25C17.18 15.04 17.32 14.77 17.37 14.48C17.42 14.19 17.37 13.89 17.22 13.62C17.15 13.49 17.06 13.37 16.95 13.27ZM28.42 8.45C28.38 8.41 28.34 8.39 28.29 8.37C28.25 8.35 28.2 8.34 28.15 8.35C28.1 8.34 28.05 8.35 28 8.37C27.96 8.39 27.92 8.41 27.88 8.45C27.8 8.53 27.7 8.59 27.59 8.63C27.47 8.66 27.36 8.67 27.24 8.66C26.94 8.63 26.62 8.54 26.41 8.35C25.94 7.9 26.48 7.03 26.07 6.47C25.6 5.86 25.08 5.28 24.52 4.74C24.05 4.29 22.18 2.58 19.05 1.34C18.04 0.95 16.97 0.74 15.89 0.75C14.12 0.75 12.76 1.51 12.26 1.94C11.87 2.29 11.46 2.83 11.46 2.83C11.7 2.75 11.94 2.68 12.18 2.63C12.7 2.52 13.22 2.49 13.75 2.53C14.79 2.61 16.05 3.09 16.73 3.6C17.82 4.44 18.28 5.56 18.36 7.01C18.41 8.09 17.33 9.46 16.31 10.57C16.22 10.67 16.18 10.79 16.18 10.92C16.19 11.05 16.24 11.18 16.34 11.27L17.77 12.64C17.86 12.74 18 12.79 18.14 12.79C18.28 12.79 18.41 12.74 18.51 12.65C19.45 11.77 20.6 10.81 21.25 10.42C21.91 10.03 22.43 9.92 22.69 9.9C23.19 9.85 23.69 9.95 24.12 10.2C24.19 10.24 24.26 10.29 24.32 10.35C24.76 10.77 24.73 11.47 24.29 11.88L24.16 12.01C24.12 12.04 24.09 12.08 24.08 12.12C24.06 12.17 24.05 12.21 24.05 12.26C24.05 12.31 24.06 12.35 24.08 12.4C24.09 12.44 24.12 12.48 24.16 12.51L26.46 14.71C26.5 14.75 26.54 14.77 26.58 14.79C26.63 14.81 26.68 14.82 26.73 14.82C26.83 14.82 26.93 14.78 27 14.71L30.72 11.16C30.79 11.1 30.83 11 30.83 10.91C30.83 10.81 30.79 10.72 30.72 10.65L28.42 8.45Z" stroke="#196FF1" stroke-opacity="1.000000" stroke-width="1.500000" stroke-linejoin="round"/>
</svg>
