<svg width="33.022217" height="33.166992" viewBox="0 0 33.0222 33.167" fill="none" xmlns="http://www.w3.org/2000/svg" xmlns:xlink="http://www.w3.org/1999/xlink">
	<desc>
			Created with Pixso.
	</desc>
	<defs/>
	<path id="Vector" d="M16.51 5.5L16.51 32.41M21.26 32.41L16.51 32.41L11.76 32.41M30.76 18.16L26.8 10.25L22.84 18.16M10.17 18.16L6.21 10.25L2.26 18.16M3.84 10.25L5.5 10.25C7.5 10.25 9.44 9.41 11 7.87C14.22 4.7 18.79 4.7 22.01 7.87C23.57 9.41 25.51 10.25 27.51 10.25L29.17 10.25M31.78 21.23C32.3 20.17 32.57 19.65 32.09 18.9C31.61 18.16 30.82 18.16 29.24 18.16L24.36 18.16C22.77 18.16 21.98 18.16 21.51 18.9C21.03 19.65 21.29 20.17 21.81 21.23C22.79 23.17 24.65 24.5 26.8 24.5C28.94 24.5 30.81 23.17 31.78 21.23ZM11.2 21.23C11.72 20.17 11.98 19.65 11.51 18.9C11.03 18.16 10.24 18.16 8.65 18.16L3.77 18.16C2.19 18.16 1.4 18.16 0.92 18.9C0.45 19.65 0.71 20.17 1.23 21.23C2.2 23.17 4.07 24.5 6.21 24.5C8.36 24.5 10.23 23.17 11.2 21.23ZM18.19 4.8C17.74 5.25 17.14 5.5 16.51 5.5C15.88 5.5 15.27 5.25 14.83 4.8C14.38 4.35 14.13 3.75 14.13 3.12C14.13 2.49 14.38 1.89 14.83 1.44C15.27 1 15.88 0.75 16.51 0.75C17.14 0.75 17.74 1 18.19 1.44C18.63 1.89 18.88 2.49 18.88 3.12C18.88 3.75 18.63 4.35 18.19 4.8Z" stroke="#196FF1" stroke-opacity="1.000000" stroke-width="1.500000" stroke-linejoin="round" stroke-linecap="round"/>
</svg>
