<svg width="18.375000" height="18.388672" viewBox="0 0 18.375 18.3887" fill="none" xmlns="http://www.w3.org/2000/svg" xmlns:xlink="http://www.w3.org/1999/xlink">
	<desc>
			Created with Pixso.
	</desc>
	<defs/>
	<path id="Vector" d="M13.22 6.56C13.49 6.84 13.49 7.29 13.22 7.56L8.27 12.51C7.99 12.79 7.55 12.79 7.27 12.51L5.15 10.39C4.76 10 4.94 9.35 5.47 9.21C5.71 9.14 5.97 9.21 6.15 9.39L7.77 11.01L12.22 6.56C12.49 6.29 12.94 6.29 13.22 6.56ZM18.37 9.18C18.37 16.26 10.71 20.68 4.59 17.14C-1.54 13.6 -1.54 4.76 4.59 1.23C5.99 0.42 7.57 0 9.18 0C14.25 0 18.36 4.11 18.37 9.18ZM16.96 9.18C16.96 3.2 10.48 -0.54 5.3 2.45C0.11 5.44 0.11 12.92 5.3 15.91C6.48 16.6 7.82 16.96 9.18 16.96C13.47 16.95 16.95 13.47 16.96 9.18Z" fill="#54C447" fill-opacity="1.000000" fill-rule="evenodd"/>
</svg>
