<svg width="31.000000" height="31.000000" viewBox="0 0 31 31" fill="none" xmlns="http://www.w3.org/2000/svg" xmlns:xlink="http://www.w3.org/1999/xlink">
	<desc>
			Created with Pixso.
	</desc>
	<defs>
		<clipPath id="clip28_146">
			<rect id="Icon-double-quotes" rx="0.000000" width="30.000000" height="30.000000" transform="translate(0.500000 0.500000)" fill="white" fill-opacity="0"/>
		</clipPath>
	</defs>
	<rect id="Icon-double-quotes" rx="0.000000" width="30.000000" height="30.000000" transform="translate(0.500000 0.500000)" fill="#FFFFFF" fill-opacity="0"/>
	<g clip-path="url(#clip28_146)">
		<path id="Vector" d="M5.91 22.37C4.58 20.96 3.87 19.37 3.87 16.8C3.87 12.28 7.04 8.23 11.66 6.23L12.81 8.01C8.5 10.34 7.66 13.36 7.33 15.27C8.02 14.91 8.93 14.78 9.82 14.86C12.15 15.08 13.99 16.99 13.99 19.37C13.99 20.57 13.51 21.72 12.66 22.57C11.81 23.42 10.66 23.89 9.46 23.89C8.8 23.89 8.15 23.75 7.54 23.49C6.93 23.23 6.38 22.85 5.91 22.37ZM18.83 22.37C17.5 20.96 16.79 19.37 16.79 16.8C16.79 12.28 19.96 8.23 24.58 6.23L25.73 8.01C21.42 10.34 20.58 13.36 20.24 15.27C20.94 14.91 21.84 14.78 22.73 14.86C25.06 15.08 26.9 16.99 26.9 19.37C26.9 20.57 26.43 21.72 25.58 22.57C24.73 23.42 23.58 23.89 22.38 23.89C21.72 23.89 21.06 23.75 20.45 23.49C19.84 23.23 19.29 22.85 18.83 22.37Z" fill="#196FF1" fill-opacity="0.500000" fill-rule="evenodd"/>
	</g>
</svg>
