<svg width="25.000000" height="25.000000" viewBox="0 0 25 25" fill="none" xmlns="http://www.w3.org/2000/svg" xmlns:xlink="http://www.w3.org/1999/xlink">
	<desc>
			Created with Pixso.
	</desc>
	<defs>
		<clipPath id="clip1_346">
			<rect id="tools" rx="0.000000" width="24.000000" height="24.000000" transform="translate(0.500000 0.500000)" fill="white" fill-opacity="0"/>
		</clipPath>
	</defs>
	<g clip-path="url(#clip1_346)">
		<path id="Icon" d="M15.01 7.29C15.01 7.56 15.12 7.82 15.31 8.02L16.98 9.68C17.17 9.87 17.43 9.98 17.7 9.98C17.98 9.98 18.24 9.87 18.43 9.68L22.36 5.76C22.88 6.91 23.04 8.2 22.82 9.45C22.59 10.7 21.98 11.85 21.09 12.75C20.19 13.65 19.04 14.25 17.79 14.48C16.54 14.71 15.25 14.55 14.09 14.03L6.89 21.22C6.48 21.64 5.92 21.87 5.33 21.87C4.74 21.87 4.18 21.64 3.77 21.22C3.35 20.81 3.12 20.25 3.12 19.66C3.12 19.08 3.35 18.51 3.77 18.1L10.97 10.9C10.44 9.74 10.28 8.45 10.51 7.2C10.74 5.95 11.34 4.8 12.24 3.91C13.14 3.01 14.29 2.4 15.54 2.18C16.79 1.95 18.08 2.11 19.24 2.63L15.32 6.55L15.31 6.56C15.12 6.75 15.01 7.01 15.01 7.29Z" stroke="#4C93FD" stroke-opacity="1.000000" stroke-width="1.500000" stroke-linejoin="round"/>
	</g>
</svg>
